<?xml version="1.0" encoding="utf-8"?>
<!-- Generator: Adobe Illustrator 28.2.0, SVG Export Plug-In . SVG Version: 6.00 Build 0)  -->
<svg version="1.1" id="Layer_1" xmlns="http://www.w3.org/2000/svg" xmlns:xlink="http://www.w3.org/1999/xlink" x="0px" y="0px"
	 viewBox="0 0 100 100" style="enable-background:new 0 0 100 100;" xml:space="preserve">
<style type="text/css">
	.st0{fill:#1C94D3;}
	.st1{fill:#666666;}
	.st2{font-family:'Gulim';}
	.st3{font-size:10.6732px;}
</style>
<g>
	<path class="st0" d="M92.13,14.46c0,0.86,0.08,7.93,0.08,7.96c0,0.2-0.04,16.74-0.04,18.21v8.11c0,4.34-2.61,8.99-4.17,10.56
		c-2.18,2.17-5.47,4.01-9.81,4.11l0,8.08c0,0,9.45-0.06,15.75-6.36C98.21,60.76,100,53.67,100,49.3v-8.67v-8.75v-8.75v-8.67H92.13z"
		/>
	<path class="st0" d="M10.06,25.17C3.35,32.06,0,40.27,0,49.79c0,9.65,3.4,17.92,10.2,24.81c10.8,11.34,27.9,10.62,28.53,10.62
		V35.28h-9.64l0.02,10.38l0.03,28.59c0,0-6.11-1.01-12.86-7.76c-2.15-2.14-6.32-8.76-6.32-17.44c0-7.46,3.49-13.3,7.14-16.95
		c9.09-8.64,21.69-7.72,21.73-7.72v-9.93C38.78,14.45,20.52,13.83,10.06,25.17z"/>
	<path class="st0" d="M51.83,23.09c-5.4,5.56-8.1,12.17-8.1,19.84c0,7.78,2.74,14.44,8.22,20c8.7,9.14,22.48,8.56,22.99,8.56v-7.97
		c0,0-11.69-0.26-18.09-7.13c-1.73-1.73-5.1-7.05-5.1-14.06c0-6.01,2.81-10.72,5.75-13.65c7.33-6.97,17.48-6.23,17.51-6.23v-8
		C74.98,14.45,60.26,13.95,51.83,23.09z"/>
</g>
<text transform="matrix(0.6 0 0 1 47.2954 83.2373)" class="st1 st2 st3">Gallery Cheongju</text>
</svg>
