<svg width="35" height="35" viewBox="0 0 35 35" fill="none" xmlns="http://www.w3.org/2000/svg">
<circle opacity="0.8" cx="17.5" cy="17.5" r="17" stroke="white" stroke-opacity="0.8"/>
<g opacity="0.8" clip-path="url(#clip0_157_159)">
<path d="M22.7076 11.1709C22.0721 11.1709 21.5527 11.6903 21.5527 12.3257C21.5527 12.9612 22.0721 13.4806 22.7076 13.4806C23.343 13.4806 23.8624 12.9612 23.8624 12.3257C23.8624 11.6903 23.343 11.1709 22.7076 11.1709Z" fill="white" fill-opacity="0.8"/>
<path d="M17.5803 12.6514C14.9059 12.6514 12.7344 14.8284 12.7344 17.4973C12.7344 20.1661 14.9114 22.3432 17.5803 22.3432C20.2491 22.3432 22.4262 20.1661 22.4262 17.4973C22.4262 14.8284 20.2491 12.6514 17.5803 12.6514ZM17.5803 20.6026C15.8674 20.6026 14.4749 19.2102 14.4749 17.4973C14.4749 15.7843 15.8674 14.3919 17.5803 14.3919C19.2932 14.3919 20.6856 15.7843 20.6856 17.4973C20.6856 19.2102 19.2932 20.6026 17.5803 20.6026Z" fill="white" fill-opacity="0.8"/>
<path d="M21.4259 27.3438H13.5686C10.3085 27.3438 7.65625 24.6915 7.65625 21.4314V13.5741C7.65625 10.3085 10.3085 7.65625 13.5686 7.65625H21.4259C24.686 7.65625 27.3382 10.3085 27.3382 13.5686V21.4259C27.3382 24.686 24.686 27.3382 21.4259 27.3382V27.3438ZM13.5686 9.50731C11.3307 9.50731 9.50731 11.3307 9.50731 13.5686V21.4259C9.50731 23.6637 11.3307 25.4872 13.5686 25.4872H21.4259C23.6637 25.4872 25.4872 23.6637 25.4872 21.4259V13.5686C25.4872 11.3307 23.6637 9.50731 21.4259 9.50731H13.5686Z" fill="white" fill-opacity="0.8"/>
</g>
<defs>
<clipPath id="clip0_157_159">
<rect width="19.6875" height="19.6875" fill="white" transform="translate(7.65625 7.65625)"/>
</clipPath>
</defs>
</svg>
