<svg width="35" height="35" viewBox="0 0 35 35" fill="none" xmlns="http://www.w3.org/2000/svg">
<circle opacity="0.8" cx="17.5" cy="17.5" r="17" stroke="white" stroke-opacity="0.8"/>
<g opacity="0.8" clip-path="url(#clip0_157_165)">
<path d="M28.4375 14.6417C28.4375 11.989 26.2863 9.84375 23.6395 9.84375H11.3605C8.71374 9.84375 6.5625 11.995 6.5625 14.6417V20.3522C6.5625 23.005 8.71374 25.1502 11.3605 25.1502H23.6335C26.2863 25.1502 28.4315 22.999 28.4315 20.3522V14.6417H28.4375ZM21.2163 17.929L15.7113 20.6543C15.4938 20.7692 14.7626 20.6121 14.7626 20.3703V14.7807C14.7626 14.533 15.4998 14.3759 15.7174 14.4967L20.9867 17.361C21.2103 17.4879 21.4399 17.8082 21.2163 17.929Z" fill="white" fill-opacity="0.8"/>
</g>
<defs>
<clipPath id="clip0_157_165">
<rect width="21.875" height="15.3125" fill="white" transform="translate(6.5625 9.84375)"/>
</clipPath>
</defs>
</svg>
