<svg width="162" height="26" viewBox="0 0 162 26" fill="none" xmlns="http://www.w3.org/2000/svg">
<g clip-path="url(#clip0_63_929)">
<path d="M59.4177 19.2761C59.5772 19.4606 59.6436 19.7046 59.6038 19.9419L59.3779 21.3592C59.3114 21.7614 58.9659 22.0514 58.5605 22.0514H46.075C45.6165 22.0514 45.2444 21.6823 45.2444 21.2274V1.38458C45.2444 0.929715 45.6165 0.560547 46.075 0.560547H58.3346C58.7931 0.560547 59.1652 0.929715 59.1652 1.38458V2.80193C59.1652 3.25679 58.7931 3.62596 58.3346 3.62596H48.4538V9.236H57.823C58.2815 9.236 58.6536 9.60517 58.6536 10.06V11.4774C58.6536 11.9323 58.2815 12.3014 57.823 12.3014H48.4538V18.986H58.7931C59.039 18.986 59.2649 19.0915 59.4244 19.2761H59.4177ZM79.485 0.560547H77.4982C77.1527 0.560547 76.8404 0.778092 76.7208 1.10111C74.8801 6.09148 72.4349 12.9738 71.179 16.6853C69.9497 12.8947 67.6772 6.23651 65.8831 1.1143C65.7701 0.784685 65.4512 0.560547 65.099 0.560547H63.0856C62.6272 0.560547 62.2551 0.929715 62.2551 1.38458V21.2274C62.2551 21.6823 62.6272 22.0514 63.0856 22.0514H64.4279C64.8864 22.0514 65.2585 21.6823 65.2585 21.2274V12.7827C65.2585 11.4444 65.2519 9.87546 65.2319 8.33286C66.6871 12.8222 68.6075 18.5245 69.6308 21.4977C69.7437 21.8339 70.0627 22.058 70.4149 22.058H71.7305C72.0827 22.058 72.395 21.8339 72.5146 21.5043C72.9199 20.3506 73.3784 19.0717 73.8502 17.7467C75.0463 14.3846 76.3287 10.7654 77.3321 7.85162C77.3254 9.30852 77.3188 10.7984 77.3188 12.1102V21.2406C77.3188 21.6954 77.6909 22.0646 78.1494 22.0646H79.4916C79.9501 22.0646 80.3222 21.6954 80.3222 21.2406V1.38458C80.3222 0.929715 79.9501 0.560547 79.4916 0.560547H79.485ZM95.3993 16.237H93.9441C93.5919 16.237 93.2729 16.4612 93.16 16.7908C92.5154 18.63 91.532 19.4079 89.8575 19.4079C87.0733 19.4079 86.0899 16.5666 86.0899 14.1341C86.0899 11.7015 87.1199 8.86683 90.0037 8.86683C91.6649 8.86683 92.6882 9.71065 93.14 11.451C93.2331 11.8136 93.5653 12.0707 93.9441 12.0707H95.3993C95.6385 12.0707 95.8644 11.9718 96.0239 11.7938C96.1833 11.6158 96.2564 11.3785 96.2232 11.1478C95.9109 8.7218 94.0969 5.89371 90.0303 5.89371C85.1397 5.89371 82.9137 10.1985 82.9137 14.2C82.9137 19.1772 85.6381 22.3942 89.8575 22.3942C93.0404 22.3942 95.2929 20.5813 96.2033 17.2786C96.2697 17.0281 96.2166 16.7644 96.0637 16.56C95.9043 16.3557 95.6651 16.237 95.4059 16.237H95.3993ZM111.254 13.1518C111.254 13.554 111.254 13.9759 111.227 14.378C111.194 14.8065 110.828 15.1361 110.397 15.1361H100.755C101.007 17.7994 102.403 19.4145 104.509 19.4145C106.616 19.4145 107.4 18.2938 107.865 17.239C107.998 16.9424 108.297 16.7512 108.622 16.7512H110.084C110.35 16.7512 110.596 16.8765 110.755 17.0874C110.908 17.2984 110.955 17.5753 110.875 17.8258C110.33 19.5266 108.762 22.3942 104.456 22.3942C99.3928 22.3942 97.592 18.0103 97.592 14.2527C97.592 9.25578 100.423 5.89371 104.622 5.89371C109.207 5.89371 111.254 9.53925 111.254 13.1518ZM108.051 12.2421C107.805 10.4951 106.795 8.87343 104.569 8.87343C103.812 8.87343 101.619 8.87343 100.934 12.2421H108.051ZM120.796 5.89371C119.161 5.89371 117.852 6.3288 116.842 7.21217C116.835 7.10669 116.829 7.02099 116.822 6.96166C116.769 6.55294 116.417 6.2431 115.998 6.2431H114.596C114.37 6.2431 114.158 6.33539 114.005 6.49361C113.852 6.65182 113.765 6.86937 113.765 7.08692C113.792 8.2142 113.792 9.38763 113.792 10.6402V21.2406C113.792 21.6954 114.164 22.0646 114.623 22.0646H116.051C116.51 22.0646 116.882 21.6954 116.882 21.2406V14.0154C116.882 11.7015 117.533 8.94594 120.623 8.94594C121.786 8.94594 123.334 9.29533 123.334 12.2882V21.2472C123.334 21.702 123.706 22.0712 124.165 22.0712H125.593C126.052 22.0712 126.424 21.702 126.424 21.2472V12.0641C126.424 8.2142 124.317 5.91349 120.796 5.91349V5.89371ZM136.258 6.22992H133.687V2.63712C133.687 2.18225 133.314 1.81308 132.856 1.81308H131.427C130.969 1.81308 130.597 2.18225 130.597 2.63712V6.23651H128.769C128.311 6.23651 127.939 6.60568 127.939 7.06055V8.39219C127.939 8.84706 128.311 9.21623 128.769 9.21623H130.597V18.2543C130.597 21.557 132.603 22.2558 134.285 22.2558C135.155 22.2558 135.859 22.1503 136.371 21.9394C136.683 21.8141 136.883 21.5109 136.883 21.1746V19.9287C136.883 19.665 136.756 19.4211 136.544 19.2629C136.331 19.1047 136.059 19.0651 135.806 19.1376C135.527 19.2233 135.089 19.2695 134.57 19.2695C134.079 19.2695 133.687 19.2695 133.687 17.6016V9.21623H136.258C136.717 9.21623 137.089 8.84706 137.089 8.39219V7.06055C137.089 6.60568 136.717 6.23651 136.258 6.23651V6.22992ZM151.402 13.1518C151.402 13.554 151.402 13.9759 151.368 14.378C151.335 14.8065 150.976 15.1361 150.544 15.1361H140.903C141.155 17.7994 142.551 19.4145 144.657 19.4145C146.763 19.4145 147.548 18.2938 148.013 17.239C148.139 16.9424 148.438 16.7512 148.77 16.7512H150.225C150.491 16.7512 150.744 16.8765 150.897 17.0874C151.056 17.2984 151.096 17.5753 151.016 17.8258C150.471 19.5266 148.91 22.3942 144.597 22.3942C139.534 22.3942 137.74 18.0103 137.74 14.2527C137.74 9.25578 140.564 5.89371 144.77 5.89371C149.328 5.89371 151.402 9.65791 151.402 13.1518ZM148.192 12.2421C147.946 10.4951 146.943 8.87343 144.71 8.87343C143.953 8.87343 141.76 8.87343 141.076 12.2421H148.192ZM161.747 6.11785C161.581 5.95963 161.355 5.88053 161.136 5.89371C159.515 5.97282 158.086 6.57272 157.003 7.58793C156.996 7.36379 156.983 7.17262 156.977 7.00781C156.95 6.57272 156.584 6.23651 156.146 6.23651H154.744C154.285 6.23651 153.913 6.60568 153.913 7.06055C153.913 7.19899 153.913 7.39675 153.913 7.66704C153.92 8.27353 153.933 9.26896 153.933 10.917V21.234C153.933 21.6888 154.305 22.058 154.764 22.058H156.192C156.651 22.058 157.023 21.6888 157.023 21.234V13.8638C157.023 11.0423 158.591 9.24919 161.223 9.0712C161.661 9.04483 162 8.68225 162 8.24716V6.71775C162 6.49361 161.907 6.27606 161.741 6.11785H161.747Z" fill="white"/>
<path d="M15.2099 9.82261C15.4093 9.82261 15.5422 9.68417 15.5488 9.49959L15.5621 8.85355C15.5621 8.76785 15.5289 8.68215 15.4691 8.61622C15.4093 8.55689 15.3229 8.51734 15.2365 8.51734L10.9838 8.44482C10.9107 8.45801 10.8111 8.47779 10.7446 8.53712C10.6782 8.59645 10.6449 8.68215 10.6449 8.76785L10.4855 17.8322C10.4855 17.9179 10.5187 18.0036 10.5785 18.0696C10.6383 18.1289 10.7247 18.1685 10.8111 18.1685L15.1435 18.241C15.3096 18.241 15.4491 18.1223 15.4757 17.9575L15.5687 17.3115C15.582 17.2192 15.5554 17.1203 15.489 17.0544C15.4292 16.9818 15.3362 16.9423 15.2431 16.9423L11.7015 16.883L11.7546 13.7384L14.9641 13.7912C15.1634 13.8044 15.2963 13.6527 15.3029 13.4682L15.3162 12.8221C15.3162 12.6375 15.1701 12.4925 14.9906 12.4859L11.7812 12.4332L11.8277 9.77647L15.2099 9.8358V9.82261Z" fill="white"/>
<path d="M22.2401 18.03C22.2401 18.1157 22.2734 18.2014 22.3332 18.2673C22.393 18.3333 22.4794 18.3662 22.5657 18.3662H23.0774V18.3728C23.2568 18.3728 23.4096 18.2278 23.4096 18.0498L23.5691 8.98539C23.5691 8.89969 23.5359 8.81399 23.4761 8.74806C23.4163 8.68873 23.3299 8.64918 23.2435 8.64918L22.4794 8.63599C22.3598 8.63599 22.2003 8.72829 22.1604 8.86013C21.4295 11.0949 20.4527 14.1735 19.9344 15.8743C19.4892 14.1274 18.6852 11.1147 18.0473 8.79421C18.0074 8.65577 17.8812 8.55689 17.735 8.55029L16.9642 8.53711C16.7781 8.55029 16.6319 8.67555 16.6253 8.86013L16.4658 17.9179C16.4658 18.1025 16.612 18.2476 16.7914 18.2541H17.3031C17.4027 18.2739 17.4758 18.2344 17.5423 18.1684C17.6087 18.1091 17.6419 18.0234 17.6419 17.9377L17.7084 14.0812C17.7217 13.4945 17.7283 12.8155 17.735 12.1431C18.2533 14.1867 18.9244 16.7247 19.2832 18.0564C19.3231 18.2014 19.4493 18.3003 19.5955 18.3003H20.1005C20.26 18.3201 20.3796 18.2212 20.4261 18.0762L20.971 16.3622C21.4428 14.8789 21.9411 13.2902 22.3465 11.9849C22.3332 12.6243 22.3199 13.2704 22.3066 13.8439L22.2335 18.0102L22.2401 18.03Z" fill="white"/>
<path d="M27.2304 20.6274C26.9713 20.6274 26.752 20.6802 26.5659 20.812C26.5659 20.7922 26.5659 20.7791 26.5726 20.7659C26.5726 20.7395 26.5726 20.7197 26.5526 20.7C26.5393 20.6802 26.5128 20.6736 26.4928 20.667H25.9546V20.6604C25.9147 20.6604 25.8815 20.6868 25.8749 20.7263C25.8416 20.8714 25.7818 21.0889 25.6024 21.7415L24.9579 24.062C24.9579 24.062 24.9579 24.1148 24.9712 24.1345C24.9845 24.1543 25.011 24.1675 25.0376 24.1675L25.5958 24.1807C25.6357 24.1807 25.6689 24.1543 25.6755 24.1214L26.2935 21.9129C26.4663 21.2735 26.7254 21.1878 26.9314 21.1878H26.9447C27.051 21.1878 27.1241 21.2142 27.1573 21.2603C27.2038 21.3196 27.1972 21.4317 27.1573 21.5965L26.4663 24.095C26.4663 24.095 26.4663 24.1477 26.4795 24.1675C26.4928 24.1873 26.5194 24.2005 26.546 24.2005H27.1042V24.2071C27.144 24.2071 27.1772 24.1807 27.1839 24.1477L27.9082 21.5504C28.0012 21.2076 27.9215 21.0032 27.8417 20.8911C27.7221 20.7329 27.5161 20.6472 27.2503 20.6406L27.2304 20.6274Z" fill="white"/>
<path d="M31.2505 20.7525H30.7986L31.0112 20.0076C31.0179 19.9812 31.0112 19.9548 30.998 19.9351C30.9847 19.9153 30.9581 19.9021 30.9315 19.9021H30.3866V19.8955C30.3468 19.8955 30.3202 19.9219 30.3069 19.9548L30.0743 20.7393H29.6756C29.6358 20.7393 29.6026 20.7657 29.5959 20.7987L29.4829 21.1942C29.4829 21.1942 29.4829 21.2469 29.4962 21.2667C29.5095 21.2865 29.5361 21.2997 29.5627 21.2997H29.9082L29.2703 23.5476C29.2039 23.785 29.2172 23.9695 29.3168 24.0948C29.4231 24.2332 29.6092 24.2992 29.9016 24.3058C29.9215 24.3058 29.9414 24.3058 29.9614 24.3058C30.1076 24.3058 30.2338 24.2926 30.3534 24.2662C30.3866 24.2662 30.4066 24.2398 30.4132 24.2069L30.5129 23.8509C30.5129 23.8509 30.5129 23.7981 30.493 23.7718C30.473 23.7454 30.4464 23.7388 30.4199 23.7454C30.3202 23.7586 30.2338 23.7652 30.1408 23.7652C30.061 23.7652 30.0079 23.752 29.9879 23.7256C29.968 23.6993 29.968 23.6267 29.9946 23.5279L30.6258 21.3129H31.1242V21.3194C31.1641 21.3194 31.1973 21.2931 31.2039 21.2601L31.3169 20.8646C31.3169 20.8646 31.3169 20.8118 31.3036 20.7921C31.2903 20.7723 31.2637 20.7591 31.2372 20.7591L31.2505 20.7525Z" fill="white"/>
<path d="M34.6194 21.0559C34.4732 20.8582 34.2008 20.7527 33.8154 20.7461H33.7821C32.9515 20.7461 32.6924 21.2801 32.5396 21.8536L32.2073 23.0468C32.0811 23.5083 32.101 23.8313 32.2605 24.0488C32.4133 24.2466 32.6791 24.3521 33.0512 24.3587H33.0844C33.9217 24.3587 34.1343 23.8708 34.2805 23.3764L34.3071 23.2907C34.3071 23.2907 34.3137 23.238 34.3071 23.2182C34.2871 23.1984 34.2672 23.1852 34.2406 23.1852L33.6891 23.1721C33.6492 23.1721 33.616 23.1984 33.6094 23.238L33.5828 23.3237C33.4898 23.6401 33.3901 23.8049 33.1309 23.8049H33.1177C33.0047 23.8049 32.9316 23.7785 32.8917 23.7192C32.8253 23.6335 32.8253 23.4621 32.8984 23.2116L32.9515 23.0204C32.9781 22.915 33.0113 22.7897 33.0313 22.7172L34.42 22.737C34.42 22.737 34.4865 22.7172 34.4998 22.6776C34.5197 22.6117 34.5928 22.3414 34.646 22.1503L34.6991 21.9657C34.8054 21.5701 34.7855 21.2669 34.626 21.0559H34.6194ZM34.0346 21.7679L33.9948 21.8997C33.9682 21.992 33.935 22.1107 33.915 22.1898L33.1775 22.1766L33.2771 21.8206C33.3635 21.4976 33.4831 21.2801 33.7622 21.2801H33.7755C33.8885 21.2801 33.9682 21.313 34.0147 21.3724C34.0745 21.4515 34.0812 21.5899 34.0346 21.7679Z" fill="white"/>
<path d="M38.2075 20.8252C38.0082 20.8252 37.6826 20.8713 37.4101 21.1021C37.4234 21.0361 37.4301 20.9834 37.4367 20.9504C37.4367 20.9241 37.4367 20.9043 37.4168 20.8845C37.4035 20.8647 37.3769 20.8582 37.357 20.8582H36.8254C36.8254 20.8582 36.7523 20.8779 36.7457 20.9109C36.6991 21.1284 36.6061 21.4712 36.4466 22.0448L35.8353 24.2466C35.8353 24.2466 35.8353 24.2993 35.8486 24.3191C35.8619 24.3389 35.8885 24.3521 35.9151 24.3521H36.4732V24.3587C36.5131 24.3587 36.5463 24.3323 36.553 24.2993L37.0912 22.3348C37.244 21.7877 37.5497 21.5306 38.0547 21.524C38.0879 21.524 38.1211 21.4976 38.1344 21.4646L38.2873 20.9307C38.2873 20.9307 38.2873 20.8779 38.274 20.8582C38.2607 20.8384 38.2341 20.8252 38.2075 20.8252Z" fill="white"/>
<path d="M34.9114 3.21045C34.9114 3.21045 33.3698 0 26.0605 0C18.7513 0 16.0934 1.31846 16.0934 1.31846C16.0934 1.31846 12.1596 2.70284 7.45513 6.59229C3.46825 9.88844 3.58786 10.7059 1.47481 13.8438C-1.1831 17.7992 0.49803 22.8818 0.810335 23.073C0.810335 23.073 2.27883 24.8793 4.79721 25.7099C6.79065 26.3692 16.4256 26.0396 19.748 23.4026L21.582 21.9457L21.3294 22.8621C21.2032 23.3169 21.2231 23.6466 21.3893 23.8641C21.5354 24.0619 21.8012 24.1608 22.1733 24.1673H22.2132C23.0438 24.1673 23.2564 23.6861 23.4093 23.1917L23.4292 23.106C23.4292 23.106 23.4358 23.0532 23.4292 23.0335C23.4093 23.0137 23.3893 23.0005 23.3628 23.0005L22.8112 22.9873C22.7714 22.9873 22.7448 23.0137 22.7315 23.0467L22.7049 23.1389C22.6185 23.4488 22.5189 23.6202 22.2531 23.6202H22.2398C22.1335 23.6202 22.0537 23.5938 22.0139 23.5345C21.9474 23.4488 21.9474 23.2774 22.0139 23.0269L22.067 22.8291C22.0936 22.7236 22.1268 22.605 22.1534 22.5259L23.5355 22.5522C23.5355 22.5522 23.602 22.5259 23.6153 22.4929C23.6352 22.4336 23.7016 22.1831 23.7548 21.9919L23.8146 21.7809C23.9276 21.3854 23.901 21.0822 23.7415 20.8712C23.5953 20.6734 23.3229 20.568 22.9375 20.5614H22.9043C22.2797 20.5614 21.974 20.8646 21.8012 21.2667C21.3826 21.5832 20.7181 22.0446 19.7281 22.6445C18.8509 23.1719 16.4256 24.0619 15.7611 24.0619C14.3724 24.5893 6.95012 24.6618 4.13273 23.7323C2.13929 23.073 0.810335 21.0953 0.810335 19.1176C0.810335 15.7556 2.13929 13.8438 2.13929 13.8438C2.13929 13.8438 4.51148 9.85548 11.442 5.27383C15.4289 2.63692 18.0868 1.31846 25.3961 1.31846C35.3832 1.31846 34.6988 7.25152 34.6988 7.25152C34.6988 7.25152 35.3633 9.88844 30.7119 15.8215L30.5923 15.9402C30.672 15.538 30.7185 15.0898 30.7318 14.5624L30.8249 9.11055C30.8249 8.93256 30.6787 8.78093 30.4993 8.78093L29.9544 8.76775C29.868 8.77434 29.7816 8.80071 29.7152 8.86004C29.6554 8.91937 29.6155 9.00507 29.6155 9.09077L29.5225 14.5822C29.5025 15.6237 29.3165 16.3621 28.9776 16.784C28.7052 17.1136 28.3198 17.2718 27.7815 17.252C27.3098 17.2454 26.9377 17.074 26.6652 16.7378C26.2998 16.283 26.1203 15.538 26.1403 14.5228L26.2333 9.03803C26.24 8.85345 26.0938 8.70183 25.9077 8.70183L25.3496 8.68864C25.2632 8.68864 25.1768 8.7216 25.117 8.78093C25.0505 8.84026 25.0173 8.92596 25.0173 9.01166L24.9176 14.5822C24.8977 15.8874 25.1635 16.896 25.7084 17.5882C26.2001 18.2079 26.8978 18.5441 27.7417 18.5573H27.8015C28.6852 18.5573 29.662 18.2409 30.2401 17.0477C31.8947 15.7951 34.0276 13.7186 34.9114 10.8773C36.6656 5.26724 34.9114 3.21045 34.9114 3.21045ZM22.3993 21.6359C22.4856 21.3129 22.6053 21.0953 22.891 21.0953H22.8976C23.0106 21.0953 23.0903 21.1283 23.1368 21.1876C23.1966 21.2667 23.2033 21.4052 23.1568 21.5832L23.1302 21.6623C23.1036 21.7612 23.0637 21.9128 23.0372 22.0051L22.2996 21.9919L22.3993 21.6359Z" fill="white"/>
</g>
<defs>
<clipPath id="clip0_63_929">
<rect width="162" height="26" fill="white"/>
</clipPath>
</defs>
</svg>
