<svg width="161" height="26" viewBox="0 0 161 26" fill="none" xmlns="http://www.w3.org/2000/svg">
<g clip-path="url(#clip0_86_1126)">
<path d="M58.9483 19.2761C59.1065 19.4606 59.1725 19.7046 59.1329 19.9419L58.9088 21.3592C58.8428 21.7614 58.5 22.0514 58.0979 22.0514H45.711C45.2561 22.0514 44.887 21.6823 44.887 21.2274V1.38458C44.887 0.929715 45.2561 0.560547 45.711 0.560547H57.8738C58.3286 0.560547 58.6978 0.929715 58.6978 1.38458V2.80193C58.6978 3.25679 58.3286 3.62596 57.8738 3.62596H48.071V9.236H57.3662C57.821 9.236 58.1902 9.60517 58.1902 10.06V11.4774C58.1902 11.9323 57.821 12.3014 57.3662 12.3014H48.071V18.986H58.3287C58.5726 18.986 58.7967 19.0915 58.9549 19.2761H58.9483ZM78.857 0.560547H76.8859C76.5432 0.560547 76.2333 0.778092 76.1147 1.10111C74.2886 6.09148 71.8626 12.9738 70.6167 16.6853C69.3971 12.8947 67.1425 6.23651 65.3626 1.1143C65.2506 0.784685 64.9341 0.560547 64.5847 0.560547H62.5873C62.1324 0.560547 61.7632 0.929715 61.7632 1.38458V21.2274C61.7632 21.6823 62.1324 22.0514 62.5873 22.0514H63.9189C64.3738 22.0514 64.7429 21.6823 64.7429 21.2274V12.7827C64.7429 11.4444 64.7364 9.87546 64.7166 8.33286C66.1603 12.8222 68.0655 18.5245 69.0807 21.4977C69.1927 21.8339 69.5092 22.058 69.8586 22.058H71.1638C71.5132 22.058 71.8231 21.8339 71.9417 21.5043C72.3439 20.3506 72.7987 19.0717 73.2668 17.7467C74.4534 14.3846 75.7257 10.7654 76.7211 7.85162C76.7146 9.30852 76.708 10.7984 76.708 12.1102V21.2406C76.708 21.6954 77.0771 22.0646 77.532 22.0646H78.8636C79.3185 22.0646 79.6877 21.6954 79.6877 21.2406V1.38458C79.6877 0.929715 79.3185 0.560547 78.8636 0.560547H78.857ZM94.6456 16.237H93.2019C92.8525 16.237 92.5361 16.4612 92.424 16.7908C91.7845 18.63 90.8089 19.4079 89.1476 19.4079C86.3854 19.4079 85.4098 16.5666 85.4098 14.1341C85.4098 11.7015 86.4316 8.86683 89.2926 8.86683C90.9407 8.86683 91.9559 9.71065 92.4042 11.451C92.4965 11.8136 92.8261 12.0707 93.2019 12.0707H94.6456C94.8829 12.0707 95.107 11.9718 95.2653 11.7938C95.4235 11.6158 95.496 11.3785 95.463 11.1478C95.1532 8.7218 93.3535 5.89371 89.319 5.89371C84.4671 5.89371 82.2587 10.1985 82.2587 14.2C82.2587 19.1772 84.9615 22.3942 89.1476 22.3942C92.3053 22.3942 94.5401 20.5813 95.4433 17.2786C95.5092 17.0281 95.4564 16.7644 95.3048 16.56C95.1466 16.3557 94.9093 16.237 94.6522 16.237H94.6456ZM110.375 13.1518C110.375 13.554 110.375 13.9759 110.348 14.378C110.315 14.8065 109.953 15.1361 109.524 15.1361H99.959C100.209 17.7994 101.594 19.4145 103.684 19.4145C105.773 19.4145 106.551 18.2938 107.013 17.239C107.145 16.9424 107.441 16.7512 107.764 16.7512H109.215C109.478 16.7512 109.722 16.8765 109.88 17.0874C110.032 17.2984 110.078 17.5753 109.999 17.8258C109.458 19.5266 107.903 22.3942 103.631 22.3942C98.6076 22.3942 96.821 18.0103 96.821 14.2527C96.821 9.25578 99.6294 5.89371 103.796 5.89371C108.344 5.89371 110.375 9.53925 110.375 13.1518ZM107.197 12.2421C106.953 10.4951 105.951 8.87343 103.743 8.87343C102.991 8.87343 100.816 8.87343 100.137 12.2421H107.197ZM119.841 5.89371C118.22 5.89371 116.921 6.3288 115.919 7.21217C115.912 7.10669 115.906 7.02099 115.899 6.96166C115.846 6.55294 115.497 6.2431 115.082 6.2431H113.691C113.467 6.2431 113.256 6.33539 113.104 6.49361C112.952 6.65182 112.867 6.86937 112.867 7.08692C112.893 8.2142 112.893 9.38763 112.893 10.6402V21.2406C112.893 21.6954 113.262 22.0646 113.717 22.0646H115.134C115.589 22.0646 115.958 21.6954 115.958 21.2406V14.0154C115.958 11.7015 116.605 8.94594 119.67 8.94594C120.824 8.94594 122.36 9.29533 122.36 12.2882V21.2472C122.36 21.702 122.729 22.0712 123.184 22.0712H124.601C125.056 22.0712 125.425 21.702 125.425 21.2472V12.0641C125.425 8.2142 123.335 5.91349 119.841 5.91349V5.89371ZM135.182 6.22992H132.63V2.63712C132.63 2.18225 132.261 1.81308 131.806 1.81308H130.389C129.934 1.81308 129.565 2.18225 129.565 2.63712V6.23651H127.752C127.297 6.23651 126.928 6.60568 126.928 7.06055V8.39219C126.928 8.84706 127.297 9.21623 127.752 9.21623H129.565V18.2543C129.565 21.557 131.556 22.2558 133.224 22.2558C134.087 22.2558 134.786 22.1503 135.294 21.9394C135.603 21.8141 135.801 21.5109 135.801 21.1746V19.9287C135.801 19.665 135.676 19.4211 135.465 19.2629C135.254 19.1047 134.984 19.0651 134.733 19.1376C134.456 19.2233 134.021 19.2695 133.507 19.2695C133.019 19.2695 132.63 19.2695 132.63 17.6016V9.21623H135.182C135.636 9.21623 136.006 8.84706 136.006 8.39219V7.06055C136.006 6.60568 135.636 6.23651 135.182 6.23651V6.22992ZM150.205 13.1518C150.205 13.554 150.205 13.9759 150.172 14.378C150.14 14.8065 149.784 15.1361 149.355 15.1361H139.79C140.04 17.7994 141.424 19.4145 143.514 19.4145C145.604 19.4145 146.382 18.2938 146.843 17.239C146.969 16.9424 147.265 16.7512 147.595 16.7512H149.039C149.302 16.7512 149.553 16.8765 149.704 17.0874C149.863 17.2984 149.902 17.5753 149.823 17.8258C149.283 19.5266 147.733 22.3942 143.455 22.3942C138.432 22.3942 136.652 18.0103 136.652 14.2527C136.652 9.25578 139.453 5.89371 143.626 5.89371C148.149 5.89371 150.205 9.65791 150.205 13.1518ZM147.021 12.2421C146.777 10.4951 145.782 8.87343 143.567 8.87343C142.815 8.87343 140.64 8.87343 139.961 12.2421H147.021ZM160.47 6.11785C160.305 5.95963 160.081 5.88053 159.863 5.89371C158.255 5.97282 156.837 6.57272 155.763 7.58793C155.756 7.36379 155.743 7.17262 155.736 7.00781C155.71 6.57272 155.347 6.23651 154.912 6.23651H153.521C153.066 6.23651 152.697 6.60568 152.697 7.06055C152.697 7.19898 152.697 7.39675 152.697 7.66704C152.704 8.27353 152.717 9.26896 152.717 10.917V21.234C152.717 21.6888 153.086 22.058 153.541 22.058H154.958C155.413 22.058 155.783 21.6888 155.783 21.234V13.8638C155.783 11.0423 157.338 9.24919 159.949 9.0712C160.384 9.04483 160.72 8.68225 160.72 8.24716V6.71775C160.72 6.49361 160.628 6.27606 160.463 6.11785H160.47Z" fill="#3D3D3D"/>
<path d="M15.0897 9.82261C15.2875 9.82261 15.4193 9.68417 15.4259 9.49959L15.4391 8.85355C15.4391 8.76785 15.4061 8.68215 15.3468 8.61622C15.2875 8.55689 15.2018 8.51734 15.1161 8.51734L10.897 8.44482C10.8245 8.45801 10.7256 8.47779 10.6597 8.53712C10.5938 8.59645 10.5608 8.68215 10.5608 8.76785L10.4026 17.8322C10.4026 17.9179 10.4355 18.0036 10.4949 18.0696C10.5542 18.1289 10.6399 18.1685 10.7256 18.1685L15.0238 18.241C15.1886 18.241 15.327 18.1223 15.3534 17.9575L15.4457 17.3115C15.4589 17.2192 15.4325 17.1203 15.3666 17.0544C15.3073 16.9818 15.215 16.9423 15.1227 16.9423L11.609 16.883L11.6617 13.7384L14.8458 13.7912C15.0436 13.8044 15.1754 13.6527 15.182 13.4682L15.1952 12.8221C15.1952 12.6375 15.0502 12.4925 14.8722 12.4859L11.6881 12.4332L11.7342 9.77647L15.0897 9.8358V9.82261Z" fill="#468409"/>
<path d="M22.0644 18.03C22.0644 18.1157 22.0974 18.2014 22.1567 18.2673C22.216 18.3333 22.3017 18.3662 22.3874 18.3662H22.895V18.3728C23.073 18.3728 23.2246 18.2278 23.2246 18.0498L23.3829 8.98539C23.3829 8.89969 23.3499 8.81399 23.2906 8.74806C23.2312 8.68873 23.1455 8.64918 23.0598 8.64918L22.3017 8.63599C22.1831 8.63599 22.0248 8.72829 21.9853 8.86013C21.2601 11.0949 20.2911 14.1735 19.7769 15.8743C19.3352 14.1274 18.5375 11.1147 17.9047 8.79421C17.8651 8.65577 17.7399 8.55689 17.5948 8.55029L16.8301 8.53711C16.6455 8.55029 16.5005 8.67555 16.4939 8.86013L16.3357 17.9179C16.3357 18.1025 16.4807 18.2476 16.6587 18.2541H17.1663C17.2652 18.2739 17.3377 18.2344 17.4036 18.1684C17.4696 18.1091 17.5025 18.0234 17.5025 17.9377L17.5685 14.0812C17.5816 13.4945 17.5882 12.8155 17.5948 12.1431C18.109 14.1867 18.7748 16.7247 19.1308 18.0564C19.1704 18.2014 19.2956 18.3003 19.4407 18.3003H19.9417C20.0999 18.3201 20.2186 18.2212 20.2647 18.0762L20.8053 16.3622C21.2733 14.8789 21.7677 13.2902 22.1699 11.9849C22.1567 12.6243 22.1435 13.2704 22.1303 13.8439L22.0578 18.0102L22.0644 18.03Z" fill="#468409"/>
<path d="M27.0151 20.6274C26.758 20.6274 26.5404 20.6802 26.3558 20.812C26.3558 20.7922 26.3558 20.7791 26.3624 20.7659C26.3624 20.7395 26.3624 20.7197 26.3426 20.7C26.3295 20.6802 26.3031 20.6736 26.2833 20.667H25.7493V20.6604C25.7098 20.6604 25.6768 20.6868 25.6702 20.7263C25.6373 20.8714 25.5779 21.0889 25.3999 21.7415L24.7605 24.062C24.7605 24.062 24.7605 24.1148 24.7737 24.1345C24.7869 24.1543 24.8132 24.1675 24.8396 24.1675L25.3934 24.1807C25.4329 24.1807 25.4659 24.1543 25.4725 24.1214L26.0855 21.9129C26.2569 21.2735 26.514 21.1878 26.7184 21.1878H26.7316C26.8371 21.1878 26.9096 21.2142 26.9425 21.2603C26.9887 21.3196 26.9821 21.4317 26.9425 21.5965L26.2569 24.095C26.2569 24.095 26.2569 24.1477 26.2701 24.1675C26.2833 24.1873 26.3097 24.2005 26.3361 24.2005H26.8898V24.2071C26.9294 24.2071 26.9623 24.1807 26.9689 24.1477L27.6875 21.5504C27.7798 21.2076 27.7007 21.0032 27.6216 20.8911C27.5029 20.7329 27.2985 20.6472 27.0348 20.6406L27.0151 20.6274Z" fill="#468409"/>
<path d="M31.0035 20.7525H30.5553L30.7662 20.0076C30.7728 19.9812 30.7662 19.9548 30.753 19.9351C30.7398 19.9153 30.7135 19.9021 30.6871 19.9021H30.1465V19.8955C30.107 19.8955 30.0806 19.9219 30.0674 19.9548L29.8367 20.7393H29.4412C29.4016 20.7393 29.3686 20.7657 29.3621 20.7987L29.25 21.1942C29.25 21.1942 29.25 21.2469 29.2632 21.2667C29.2764 21.2865 29.3027 21.2997 29.3291 21.2997H29.6719L29.039 23.5476C28.9731 23.785 28.9863 23.9695 29.0852 24.0948C29.1907 24.2332 29.3752 24.2992 29.6653 24.3058C29.6851 24.3058 29.7049 24.3058 29.7246 24.3058C29.8697 24.3058 29.9949 24.2926 30.1136 24.2662C30.1465 24.2662 30.1663 24.2398 30.1729 24.2069L30.2718 23.8509C30.2718 23.8509 30.2718 23.7981 30.252 23.7718C30.2322 23.7454 30.2059 23.7388 30.1795 23.7454C30.0806 23.7586 29.9949 23.7652 29.9026 23.7652C29.8235 23.7652 29.7708 23.752 29.751 23.7256C29.7312 23.6993 29.7312 23.6267 29.7576 23.5279L30.3839 21.3129H30.8783V21.3194C30.9178 21.3194 30.9508 21.2931 30.9574 21.2601L31.0695 20.8646C31.0695 20.8646 31.0695 20.8118 31.0563 20.7921C31.0431 20.7723 31.0167 20.7591 30.9903 20.7591L31.0035 20.7525Z" fill="#468409"/>
<path d="M33.5481 20.7461H33.5151C32.6911 20.7461 32.434 21.2801 32.2824 21.8536L31.9528 23.0468C31.8275 23.5083 31.8473 23.8313 32.0055 24.0488C32.1571 24.2466 32.4208 24.3521 32.79 24.3587H32.8229C33.6536 24.3587 33.8645 23.8708 34.0096 23.3764L34.0359 23.2907C34.0359 23.2907 34.0425 23.238 34.0359 23.2182C34.0162 23.1984 33.9964 23.1852 33.97 23.1852L33.4228 23.1721C33.3833 23.1721 33.3503 23.1984 33.3437 23.238L33.3174 23.3237C33.2251 23.6401 33.1262 23.8049 32.8691 23.8049H32.8559C32.7438 23.8049 32.6713 23.7785 32.6318 23.7192C32.5658 23.6335 32.5658 23.4621 32.6384 23.2116L32.6911 23.0204C32.7175 22.915 32.7504 22.7897 32.7702 22.7172L34.148 22.737C34.148 22.737 34.2139 22.7172 34.2271 22.6776C34.2469 22.6117 34.3194 22.3414 34.3721 22.1503L34.4249 21.9657C34.5303 21.5701 34.5106 21.2669 34.3524 21.0559C34.2073 20.8582 33.937 20.7527 33.5547 20.7461H33.5481ZM33.7656 21.7679L33.7261 21.8997C33.6997 21.992 33.6668 22.1107 33.647 22.1898L32.9152 22.1766L33.0141 21.8206C33.0998 21.4976 33.2185 21.2801 33.4954 21.2801H33.5085C33.6206 21.2801 33.6997 21.313 33.7459 21.3724C33.8052 21.4515 33.8118 21.5899 33.7656 21.7679Z" fill="#468409"/>
<path d="M37.9716 20.8582C37.9716 20.8582 37.9321 20.8252 37.9057 20.8252C37.7079 20.8252 37.3849 20.8713 37.1146 21.1021C37.1278 21.0361 37.1344 20.9834 37.141 20.9504C37.141 20.9241 37.141 20.9043 37.1212 20.8845C37.108 20.8647 37.0817 20.8582 37.0619 20.8582H36.5345C36.5345 20.8582 36.462 20.8779 36.4554 20.9109C36.4092 21.1284 36.317 21.4712 36.1587 22.0448L35.5522 24.2466C35.5522 24.2466 35.5522 24.2993 35.5654 24.3191C35.5786 24.3389 35.605 24.3521 35.6314 24.3521H36.1851V24.3587C36.2247 24.3587 36.2576 24.3323 36.2642 24.2993L36.7982 22.3348C36.9498 21.7877 37.2531 21.5306 37.7541 21.524C37.787 21.524 37.82 21.4976 37.8332 21.4646L37.9848 20.9307C37.9848 20.9307 37.9848 20.8779 37.9716 20.8582Z" fill="#468409"/>
<path d="M25.8549 0C18.6034 0 15.9664 1.31846 15.9664 1.31846C15.9664 1.31846 12.0638 2.70284 7.39646 6.59229C3.44109 9.88844 3.55975 10.7059 1.4634 13.8438C-1.17352 17.7992 0.494331 22.8818 0.804169 23.073C0.804169 23.073 2.26107 24.8793 4.75954 25.7099C6.73723 26.3692 16.2961 26.0396 19.5922 23.4026L21.4117 21.9457L21.1612 22.8621C21.0359 23.3169 21.0557 23.6466 21.2205 23.8641C21.3655 24.0619 21.6292 24.1608 21.9984 24.1673H22.0379C22.862 24.1673 23.0729 23.6861 23.2246 23.1917L23.2443 23.106C23.2443 23.106 23.2509 23.0532 23.2443 23.0335C23.2246 23.0137 23.2048 23.0005 23.1784 23.0005L22.6313 22.9873C22.5917 22.9873 22.5653 23.0137 22.5521 23.0467L22.5258 23.1389C22.4401 23.4488 22.3412 23.6202 22.0775 23.6202H22.0643C21.9588 23.6202 21.8797 23.5938 21.8402 23.5345C21.7743 23.4488 21.7743 23.2774 21.8402 23.0269L21.8929 22.8291C21.9193 22.7236 21.9522 22.605 21.9786 22.5259L23.3498 22.5522C23.3498 22.5522 23.4157 22.5259 23.4289 22.4929C23.4487 22.4336 23.5146 22.1831 23.5674 21.9919L23.6267 21.7809C23.7388 21.3854 23.7124 21.0822 23.5542 20.8712C23.4091 20.6734 23.1389 20.568 22.7565 20.5614H22.7235C22.1039 20.5614 21.8006 20.8646 21.6292 21.2667C21.2139 21.5832 20.5547 22.0446 19.5724 22.6445C18.7022 23.1719 16.2961 24.0619 15.6368 24.0619C14.259 24.5892 6.89545 24.6618 4.10032 23.7323C2.12263 23.073 0.804169 21.0953 0.804169 19.1176C0.804169 15.7556 2.12263 13.8438 2.12263 13.8438C2.12263 13.8438 4.47607 9.85548 11.3518 5.27383C15.3072 2.63692 17.9441 1.31846 25.1957 1.31846C35.1039 1.31846 34.4249 7.25152 34.4249 7.25152C34.4249 7.25152 35.0841 9.88844 30.4695 15.8215L30.3508 15.9402C30.4299 15.538 30.4761 15.0898 30.4893 14.5624L30.5816 9.11055C30.5816 8.93256 30.4365 8.78093 30.2585 8.78093L29.718 8.76775C29.6323 8.77434 29.5466 8.80071 29.4806 8.86004C29.4213 8.91937 29.3818 9.00507 29.3818 9.09077L29.2895 14.5822C29.2697 15.6237 29.0851 16.3621 28.7489 16.784C28.4786 17.1136 28.0963 17.2718 27.5623 17.252C27.0942 17.2454 26.7251 17.074 26.4548 16.7378C26.0922 16.283 25.9142 15.538 25.934 14.5228L26.0263 9.03803C26.0329 8.85345 25.8878 8.70183 25.7033 8.70183L25.1495 8.68864C25.0638 8.68864 24.9781 8.7216 24.9188 8.78093C24.8529 8.84026 24.8199 8.92596 24.8199 9.01166L24.721 14.5822C24.7012 15.8874 24.9649 16.896 25.5055 17.5882C25.9933 18.2079 26.6855 18.5441 27.5227 18.5573H27.5821C28.4588 18.5573 29.4279 18.2409 30.0014 17.0477C31.6429 15.7951 33.759 13.7186 34.6358 10.8773C36.3762 5.26724 34.6358 3.21045 34.6358 3.21045C34.6358 3.21045 33.1064 0 25.8549 0ZM22.2225 21.6359C22.3082 21.3129 22.4269 21.0953 22.7104 21.0953H22.7169C22.829 21.0953 22.9081 21.1283 22.9543 21.1876C23.0136 21.2667 23.0202 21.4052 22.974 21.5832L22.9477 21.6623C22.9213 21.7612 22.8818 21.9128 22.8554 22.0051L22.1236 21.9919L22.2225 21.6359Z" fill="#468409"/>
</g>
<defs>
<clipPath id="clip0_86_1126">
<rect width="160.72" height="26" fill="white"/>
</clipPath>
</defs>
</svg>
