<?xml version="1.0" encoding="utf-8"?>
<!-- Generator: Adobe Illustrator 28.2.0, SVG Export Plug-In . SVG Version: 6.00 Build 0)  -->
<svg version="1.1" id="Layer_1" xmlns="http://www.w3.org/2000/svg" xmlns:xlink="http://www.w3.org/1999/xlink" x="0px" y="0px"
	 viewBox="0 0 16 16" style="enable-background:new 0 0 16 16;" xml:space="preserve">
<style type="text/css">
	.st0{fill:#468409;}
</style>
<g>
	<path class="st0" d="M6.44,6.73c0.08,0,0.13-0.06,0.13-0.13l0-0.26c0-0.03-0.01-0.07-0.04-0.09C6.52,6.22,6.48,6.21,6.45,6.21
		L4.76,6.18C4.73,6.19,4.69,6.19,4.67,6.22C4.64,6.24,4.63,6.27,4.63,6.31L4.57,9.93c0,0.03,0.01,0.07,0.04,0.09
		c0.02,0.02,0.06,0.04,0.09,0.04l1.72,0.03c0,0,0,0,0,0c0.07,0,0.12-0.05,0.13-0.11l0.04-0.26c0.01-0.04-0.01-0.08-0.03-0.1
		c-0.02-0.03-0.06-0.05-0.1-0.05l-1.4-0.02l0.02-1.26l1.27,0.02c0.08,0,0.13-0.06,0.13-0.13l0-0.26c0-0.07-0.06-0.13-0.13-0.13
		L5.08,7.77L5.1,6.71L6.44,6.73z"/>
	<path class="st0" d="M9.23,10.01c0,0.03,0.01,0.07,0.04,0.09c0.02,0.03,0.06,0.04,0.09,0.04l0.2,0c0,0,0,0,0,0
		c0.07,0,0.13-0.06,0.13-0.13L9.76,6.4c0-0.03-0.01-0.07-0.04-0.09C9.69,6.28,9.66,6.26,9.63,6.26l-0.3-0.01
		c-0.05,0-0.11,0.04-0.13,0.09c-0.29,0.89-0.68,2.12-0.88,2.8c-0.18-0.7-0.49-1.9-0.75-2.83c-0.02-0.06-0.07-0.1-0.12-0.1L7.14,6.22
		C7.06,6.22,7,6.28,7,6.35L6.94,9.97c0,0.07,0.06,0.13,0.13,0.13l0.2,0c0.04,0,0.07-0.01,0.09-0.04c0.03-0.02,0.04-0.06,0.04-0.09
		l0.03-1.54c0-0.23,0.01-0.51,0.01-0.78c0.2,0.82,0.47,1.83,0.61,2.36c0.02,0.06,0.07,0.1,0.12,0.1l0.2,0
		c0.06,0,0.11-0.04,0.13-0.09l0.21-0.68C8.91,8.76,9.11,8.12,9.27,7.6C9.26,7.86,9.26,8.12,9.25,8.34L9.23,10.01z"/>
	<path class="st0" d="M11.2,11.05c-0.1,0-0.19,0.02-0.26,0.07c0-0.01,0-0.01,0-0.02c0-0.01,0-0.02-0.01-0.03
		c-0.01-0.01-0.02-0.01-0.02-0.01l-0.21,0c0,0,0,0,0,0c-0.02,0-0.03,0.01-0.03,0.03c-0.01,0.06-0.04,0.14-0.11,0.41l-0.25,0.93
		c0,0.01,0,0.02,0.01,0.03c0.01,0.01,0.02,0.01,0.03,0.01l0.22,0c0,0,0,0,0,0c0.01,0,0.03-0.01,0.03-0.02l0.24-0.88
		c0.07-0.25,0.17-0.29,0.25-0.29c0,0,0,0,0,0c0.04,0,0.07,0.01,0.08,0.03c0.02,0.02,0.02,0.07,0,0.14l-0.27,1
		c0,0.01,0,0.02,0.01,0.03c0.01,0.01,0.02,0.01,0.03,0.01l0.22,0c0,0,0,0,0,0c0.01,0,0.03-0.01,0.03-0.02l0.29-1.04
		c0.04-0.14,0.01-0.22-0.03-0.26C11.39,11.08,11.31,11.05,11.2,11.05z"/>
	<path class="st0" d="M12.8,11.1l-0.18,0l0.08-0.3c0-0.01,0-0.02-0.01-0.03c-0.01-0.01-0.02-0.01-0.03-0.01l-0.22,0c0,0,0,0,0,0
		c-0.01,0-0.03,0.01-0.03,0.02l-0.09,0.31l-0.16,0c0,0,0,0,0,0c-0.01,0-0.03,0.01-0.03,0.02l-0.04,0.16c0,0.01,0,0.02,0.01,0.03
		c0.01,0.01,0.02,0.01,0.03,0.01l0.14,0l-0.25,0.9c-0.03,0.09-0.02,0.17,0.02,0.22c0.04,0.06,0.12,0.08,0.23,0.08
		c0.01,0,0.02,0,0.02,0c0.06,0,0.11,0,0.16-0.01c0.01,0,0.02-0.01,0.02-0.02l0.04-0.14c0-0.01,0-0.02-0.01-0.03
		s-0.02-0.01-0.03-0.01c-0.04,0.01-0.07,0.01-0.11,0.01c-0.03,0-0.05-0.01-0.06-0.02c-0.01-0.01-0.01-0.04,0-0.08l0.25-0.88l0.2,0
		c0,0,0,0,0,0c0.01,0,0.03-0.01,0.03-0.02l0.04-0.16c0-0.01,0-0.02-0.01-0.03C12.82,11.1,12.81,11.1,12.8,11.1z"/>
	<path class="st0" d="M13.81,11.09H13.8c-0.33,0-0.43,0.21-0.49,0.44l-0.13,0.48c-0.05,0.18-0.04,0.31,0.02,0.4
		c0.06,0.08,0.17,0.12,0.31,0.12h0.01c0.33,0,0.42-0.19,0.47-0.39l0.01-0.03c0-0.01,0-0.02,0-0.03c-0.01-0.01-0.02-0.01-0.03-0.01
		l-0.22-0.01c-0.02,0-0.03,0.01-0.03,0.03l-0.01,0.03c-0.04,0.13-0.08,0.19-0.18,0.19c0,0,0,0-0.01,0c-0.04,0-0.07-0.01-0.09-0.03
		c-0.03-0.03-0.03-0.1,0-0.2L13.47,12c0.01-0.04,0.02-0.09,0.03-0.12l0.55,0.01c0.01,0,0.03-0.01,0.03-0.02
		c0.01-0.03,0.04-0.13,0.06-0.21l0.02-0.07c0.04-0.16,0.03-0.28-0.03-0.36C14.07,11.14,13.97,11.1,13.81,11.09z M13.9,11.5
		l-0.02,0.05c-0.01,0.04-0.02,0.08-0.03,0.12l-0.29-0.01l0.04-0.14c0.03-0.13,0.08-0.22,0.19-0.22c0,0,0,0,0.01,0
		c0.04,0,0.08,0.01,0.09,0.04C13.92,11.38,13.92,11.43,13.9,11.5z"/>
	<path class="st0" d="M15.58,11.14c-0.01-0.01-0.02-0.01-0.03-0.01h0c-0.08,0-0.21,0.02-0.32,0.11c0.01-0.03,0.01-0.05,0.01-0.06
		c0-0.01,0-0.02-0.01-0.03c-0.01-0.01-0.02-0.01-0.02-0.01l-0.21,0c-0.01,0-0.03,0.01-0.03,0.03c-0.02,0.09-0.06,0.23-0.12,0.45
		l-0.24,0.88c0,0.01,0,0.02,0.01,0.03c0.01,0.01,0.02,0.01,0.03,0.01l0.22,0c0,0,0,0,0,0c0.01,0,0.03-0.01,0.03-0.02l0.21-0.78
		c0.06-0.22,0.18-0.32,0.38-0.32c0.01,0,0.03-0.01,0.03-0.02l0.06-0.21C15.59,11.16,15.59,11.15,15.58,11.14z"/>
	<path class="st0" d="M10.74,2.81c-2.9,0-3.95,0.53-3.95,0.53S5.23,3.89,3.37,5.44C1.79,6.76,1.83,7.08,1,8.34
		c-1.05,1.58-0.39,3.61-0.26,3.69c0,0,0.58,0.72,1.58,1.05c0.79,0.26,4.61,0.13,5.92-0.92l0.73-0.58l-0.1,0.37
		c-0.05,0.18-0.04,0.31,0.02,0.4c0.06,0.08,0.16,0.12,0.31,0.12h0.02c0.33,0,0.41-0.19,0.47-0.39l0.01-0.03c0.01-0.01,0-0.02,0-0.03
		C9.69,12,9.68,11.99,9.67,11.99l-0.22-0.01c-0.02,0-0.03,0.01-0.03,0.02l-0.01,0.04c-0.03,0.12-0.07,0.19-0.18,0.19c0,0,0,0-0.01,0
		c-0.04,0-0.07-0.01-0.09-0.03c-0.03-0.03-0.03-0.1,0-0.2l0.02-0.08c0.01-0.04,0.02-0.09,0.03-0.12l0.55,0.01
		c0.01,0,0.03-0.01,0.03-0.02c0.01-0.02,0.03-0.12,0.06-0.2l0.02-0.08c0.04-0.16,0.03-0.28-0.03-0.36
		c-0.06-0.08-0.17-0.12-0.32-0.12H9.49c-0.25,0-0.37,0.12-0.44,0.28c-0.17,0.13-0.43,0.31-0.82,0.55c-0.35,0.21-1.31,0.57-1.57,0.57
		c-0.55,0.21-3.49,0.24-4.61-0.13c-0.79-0.26-1.32-1.05-1.32-1.84c0-1.34,0.53-2.11,0.53-2.11S2.2,6.74,4.95,4.91
		c1.58-1.05,2.63-1.58,5.53-1.58c3.96,0,3.69,2.37,3.69,2.37s0.26,1.05-1.58,3.42l-0.05,0.05c0.03-0.16,0.05-0.34,0.06-0.55
		l0.04-2.18c0-0.07-0.06-0.13-0.13-0.13l-0.22-0.01c-0.03,0-0.07,0.01-0.09,0.04c-0.02,0.02-0.04,0.06-0.04,0.09l-0.04,2.19
		c-0.01,0.42-0.08,0.71-0.22,0.88c-0.11,0.13-0.26,0.19-0.47,0.19c-0.19,0-0.33-0.07-0.44-0.21c-0.14-0.18-0.22-0.48-0.21-0.88
		l0.04-2.19c0-0.07-0.06-0.13-0.13-0.13l-0.22-0.01c-0.03,0-0.07,0.01-0.09,0.04c-0.03,0.02-0.04,0.06-0.04,0.09l-0.04,2.23
		c-0.01,0.52,0.1,0.92,0.31,1.2c0.19,0.25,0.47,0.38,0.81,0.39h0.02c0.35,0,0.74-0.13,0.97-0.6c0.66-0.5,1.5-1.33,1.85-2.46
		c0.7-2.24,0-3.06,0-3.06S13.64,2.81,10.74,2.81z M9.29,11.45c0.03-0.13,0.08-0.22,0.19-0.22c0,0,0,0,0,0
		c0.04,0,0.08,0.01,0.09,0.04c0.02,0.03,0.03,0.09,0.01,0.16l-0.01,0.03c-0.01,0.04-0.03,0.1-0.04,0.14l-0.29-0.01L9.29,11.45z"/>
</g>
</svg>
