<svg width="253" height="144" viewBox="0 0 253 144" fill="none" xmlns="http://www.w3.org/2000/svg">
<g filter="url(#filter0_d_62_709)">
<path d="M106.05 90.1939C106.05 90.1939 114.851 99.4651 114.008 98.8071L115.386 104.475L105.675 105.353L104.42 91.4835L106.05 90.1939Z" fill="#00031D"/>
<path d="M95.2636 27.7796L96.1329 85.1846L83.3498 84.0241L87.7006 29.6712L95.2636 27.7796Z" fill="#00031D"/>
<path d="M27.672 88.1145L16.8286 89.0955L18.5592 108.225L30.4061 107.154L32.3218 89.913L32.4149 89.1377L27.4132 87.9585" fill="#00031D"/>
<path d="M95.2635 27.7795L95.5207 82.0255C95.5159 82.6949 94.8552 83.1463 94.2447 82.8915C91.5823 81.7781 85.6911 79.2435 85.4883 78.6255C85.2577 77.8795 90.1938 34.1448 90.7787 28.8868C90.8141 28.5573 91.0188 28.294 91.316 28.1529L93.9471 26.9359C94.5578 26.6522 95.2667 27.0939 95.2635 27.7795Z" fill="#00031D"/>
<path d="M17.7263 34.9897L31.5127 133.274L235.434 114.826L233.829 100.336L100.969 111.947L104.97 96.2962L103.693 82.1836L103.565 80.7594L95.387 81.8092L93.9386 29.7268L17.7263 34.9897Z" fill="#00031D"/>
<path d="M162.442 48.0049L228.553 38.7608L235.288 113.208L170.697 120.683L162.442 48.0049Z" fill="#00031D"/>
<path d="M42.2875 53.9798C44.9689 53.7372 46.9461 51.3668 46.7035 48.6853C46.4609 46.0038 44.0905 44.0267 41.409 44.2693C38.7275 44.5118 36.7504 46.8823 36.9929 49.5638C37.2355 52.2453 39.606 54.2224 42.2875 53.9798Z" fill="white"/>
<path d="M49.1312 48.4657C48.7681 44.452 45.2031 41.4785 41.1894 41.8416C37.1757 42.2047 34.2022 45.7697 34.5653 49.7834C34.9284 53.7971 38.4934 56.7705 42.5071 56.4074C46.5208 56.0443 49.4943 52.4794 49.1312 48.4657ZM36.993 49.5638C36.7499 46.8772 38.7224 44.5123 41.409 44.2693C44.0956 44.0262 46.4605 45.9987 46.7035 48.6853C46.9466 51.3719 44.9741 53.7368 42.2875 53.9798C39.6009 54.2229 37.236 52.2504 36.993 49.5638Z" fill="#00031D"/>
<path d="M110.886 98.7473C112.308 100.218 114.643 100.235 116.096 98.7981C119.315 95.6025 124.513 90.482 125.631 89.4835C127.79 87.5586 129.64 85.6453 131.184 83.7761C131.346 83.5819 131.579 83.4467 131.821 83.4247C131.983 83.4101 132.166 83.4425 132.32 83.5265C135.949 85.4009 145.285 92.2904 150.166 96.1075C150.974 96.7361 151.943 96.991 152.882 96.9061C153.821 96.8212 154.698 96.4155 155.366 95.6861L160.687 89.9344C161.326 89.2402 161.228 88.1559 160.475 87.5877C155.829 84.0267 142.147 75.8171 137.166 71.797C136.955 71.6365 136.852 71.4011 136.829 71.1421C136.352 65.866 135.774 60.3869 135.427 56.5513C135.323 55.4022 135.165 54.1927 134.967 52.9053C134.891 52.4227 134.433 52.0562 133.946 52.0839C131.398 52.2329 130.554 52.2766 129.048 52.4128C126.88 52.609 124.219 53.1434 122.826 53.4326C122.298 53.5456 121.968 54.0486 122.081 54.5769L122.426 56.2263L122.488 56.906C122.712 59.3822 123.561 71.2981 123.276 73.2003C123.042 74.7553 110.225 86.749 105.194 91.3812C104.832 91.7077 104.801 92.2653 105.111 92.6288C106.191 93.9181 108.838 96.6646 110.87 98.7487L110.886 98.7473Z" fill="#FFEF41"/>
<path d="M165.091 106.146L101.924 111.861C101.39 111.909 101.007 112.368 101.055 112.902L101.888 122.111C101.935 122.629 102.378 123.013 102.897 122.982C113.905 122.199 126.701 121.155 135.343 120.373C143.986 119.592 155.272 118.456 166.113 117.264C166.631 117.217 167.012 116.742 166.965 116.224L166.132 107.015C166.084 106.481 165.625 106.098 165.091 106.146Z" fill="#FFEF41"/>
<path d="M96.134 112.433L46.772 116.899C46.3351 116.939 45.9468 116.615 45.9073 116.178L44.9893 106.03C40.9226 106.349 36.7089 106.665 32.3804 106.975C32.5533 111.773 32.4575 112.157 32.8104 116.057C33.1632 119.958 33.6031 123.377 34.3629 128.709C34.4171 129.128 34.8039 129.436 35.2262 129.414C48.0586 128.596 52.2341 128.398 63.0128 127.423C73.7915 126.447 84.2142 125.325 97.1632 123.811C97.584 123.773 97.9093 123.401 97.9022 122.961C97.7669 119.481 97.3889 115.844 97.012 113.121C96.9577 112.702 96.5724 112.41 96.1516 112.448L96.134 112.433Z" fill="#0CC6D2"/>
<path d="M101.717 96.4113L100.736 85.5679C100.697 85.1309 100.308 84.8071 99.8715 84.8466L69.4775 87.5962C69.0405 87.6358 68.6522 87.3119 68.6127 86.875L68.3096 83.5248C68.2701 83.0878 68.5939 82.6996 69.0309 82.6601L91.4785 80.6293C91.8831 80.5927 92.2113 80.253 92.2071 79.8455C92.2379 73.3323 92.9024 54.3449 92.3153 47.855C91.7282 41.3651 91.5418 36.9601 90.9224 30.2937C90.8829 29.8567 90.5108 29.5314 90.0709 29.5386C87.7154 29.6538 85.3819 29.8322 83.0676 30.0416C73.2114 30.9333 63.7727 32.4724 55.1142 33.2557C47.7827 33.919 41.4312 34.2325 34.2778 34.8796C30.9277 35.1827 27.4039 35.5504 23.5343 36.0637C23.4858 36.0681 23.4549 36.0872 23.424 36.1063L22.8352 36.8122C22.8352 36.8122 22.8116 36.9123 22.8174 36.977C23.6183 45.8298 23.3069 44.7321 24.0634 50.7498C25.2685 60.4634 28.1265 78.5285 29.8521 85.5191C29.952 85.9017 30.3168 86.146 30.7052 86.1109L52.9261 84.1007C53.3631 84.0611 53.7514 84.385 53.7909 84.822L54.094 88.1721C54.1335 88.6091 53.8097 88.9973 53.3727 89.0369L21.2632 91.9417C20.8262 91.9812 20.5024 92.3695 20.5419 92.8064L21.5229 103.65C21.5624 104.087 21.9506 104.411 22.3876 104.371C37.0004 103.392 50.1257 102.384 61.746 101.333C73.3663 100.281 86.5256 98.9278 101.011 97.2585C101.448 97.2189 101.77 96.8145 101.732 96.3937L101.717 96.4113ZM71.9396 39.0598C75.9533 38.6967 79.5183 41.6702 79.8814 45.6838C80.2445 49.6975 77.271 53.2625 73.2573 53.6256C69.2436 53.9887 65.6787 51.0152 65.3156 47.0016C64.9524 42.9879 67.9259 39.4229 71.9396 39.0598ZM34.5655 49.7834C34.2024 45.7697 37.1759 42.2047 41.1896 41.8416C45.2032 41.4785 48.7682 44.452 49.1313 48.4657C49.4944 52.4794 46.521 56.0443 42.5073 56.4074C38.4936 56.7705 34.9286 53.7971 34.5655 49.7834ZM43.5388 76.1063C43.1018 76.1458 42.7135 75.8219 42.674 75.385L41.6477 64.0398C41.6081 63.6028 41.932 63.2146 42.3689 63.1751L46.0104 62.8456L46.2139 65.0952C46.3017 66.0663 46.7119 66.8124 48.1199 66.685L51.0655 66.4185C53.1694 66.2282 52.7431 65.4836 52.6552 64.5125L52.4517 62.2629L65.4962 61.0828L65.6997 63.3324C65.7876 64.3035 66.1168 65.0569 67.6057 64.9222L70.6807 64.644C72.6067 64.4698 72.3716 63.6752 72.2676 62.7056L72.2222 62.2039C72.2222 62.2039 72.1619 62.0788 72.1561 62.0141L72.0185 60.4928L74.0253 60.3112C74.4623 60.2717 74.8505 60.5955 74.8901 61.0325L75.9164 72.3777C75.9559 72.8146 75.6321 73.2029 75.1951 73.2424L43.5388 76.1063Z" fill="#0CC6D2"/>
<path d="M75.9164 72.3775L74.89 61.0323C74.8505 60.5953 74.4622 60.2715 74.0252 60.311L72.0184 60.4926L72.156 62.0139C72.156 62.0139 72.2163 62.139 72.2221 62.2037L72.2675 62.7054C72.3877 63.6735 72.6066 64.4696 70.6969 64.6424L67.6219 64.9205C66.1491 65.0538 65.8037 64.3018 65.7158 63.3308L65.5123 61.0812L52.4678 62.2612L52.6714 64.5108C52.7592 65.4819 53.2017 66.2251 51.0816 66.4169L48.1361 66.6833C46.728 66.8107 46.3179 66.0646 46.23 65.0936L46.0265 62.8439L42.3851 63.1734C41.9481 63.2129 41.6243 63.6012 41.6638 64.0381L42.6901 75.3833C42.7297 75.8203 43.1179 76.1441 43.5549 76.1046L75.2113 73.2408C75.6482 73.2012 75.9721 72.813 75.9325 72.376L75.9164 72.3775Z" fill="#00031D"/>
<path d="M239.849 80.6681L238.738 68.3842C238.658 67.4941 237.862 66.8155 236.956 66.8975L229.365 67.5842C228.459 67.6662 227.647 66.989 227.565 66.0827C227.034 59.6694 226.791 53.3768 225.934 45.5244C225.837 44.6358 225.043 43.9733 224.153 44.0539L211.189 45.2266C210.299 45.3072 209.637 46.1013 209.701 46.9929L213.766 96.6195C213.566 96.5723 213.369 96.5575 213.159 96.5766L187.203 99.512C187.203 99.512 187.187 99.5135 187.171 99.515C186.281 99.5955 185.491 98.9816 185.378 98.0944C185.144 96.2229 185.022 95.4181 184.686 92.4299C184.587 91.5088 185.247 90.6985 186.17 90.615L207.047 87.0947C207.953 87.0127 208.63 86.2009 208.548 85.2946L207.504 73.7552C207.422 72.8489 206.612 72.188 205.706 72.2699L184.731 74.1674C183.825 74.2494 183.014 73.5885 182.949 72.6807C182.827 71.1579 182.84 70.9446 182.725 68.7686L182.679 67.5327L203.75 63.9949C204.656 63.9129 205.317 63.1025 205.235 62.1962L204.175 50.4788C204.096 49.6049 203.368 48.9528 202.49 48.9833C198.848 49.1332 192.139 49.6423 185.439 50.2484C178.739 50.8545 172.062 51.5402 168.47 52.0609C167.633 52.1855 167.031 52.9253 167.06 53.7875C167.549 63.6965 168.057 71.662 168.852 80.45C169.933 92.394 171.284 103.905 172.92 114.951C173.044 115.788 173.784 116.39 174.645 116.345C176.657 116.228 179.363 116.016 182.778 115.707C190.644 114.995 209.181 112.486 214.661 111.746C214.807 111.732 214.95 111.687 215.091 111.625C215.36 112.254 216.016 112.651 216.744 112.585L229.708 111.412C230.598 111.332 231.262 110.554 231.198 109.662C230.59 100.237 230.172 94.3522 229.336 84.9315C229.254 84.0252 229.931 83.2133 230.821 83.1328L238.363 82.4505C239.269 82.3685 239.931 81.5744 239.849 80.6681Z" fill="#FFEF41"/>
<path d="M73.0377 51.1976C75.7192 50.955 77.6963 48.5846 77.4537 45.9031C77.2111 43.2216 74.8407 41.2445 72.1592 41.487C69.4777 41.7296 67.5006 44.1 67.7432 46.7815C67.9858 49.463 70.3562 51.4402 73.0377 51.1976Z" fill="white"/>
<path d="M73.2571 53.6252C77.2708 53.2621 80.2443 49.6972 79.8812 45.6835C79.5181 41.6698 75.9531 38.6963 71.9394 39.0594C67.9257 39.4225 64.9522 42.9875 65.3153 47.0012C65.6784 51.0149 69.2434 53.9883 73.2571 53.6252ZM72.159 41.487C74.8456 41.244 77.2105 43.2165 77.4535 45.9031C77.6966 48.5897 75.7241 50.9545 73.0375 51.1976C70.3509 51.4406 67.986 49.4681 67.743 46.7815C67.4999 44.095 69.4724 41.7301 72.159 41.487Z" fill="#00031D"/>
<path d="M240.126 63.3473L230.82 64.1891C230.82 64.1891 230.685 64.1361 230.679 64.0714C230.545 62.4029 230.441 60.7154 230.318 58.9969C230.032 54.7479 229.733 50.3693 229.191 45.2786C228.898 42.5803 226.48 40.5636 223.778 40.8081C220.007 41.1492 214.795 41.6207 210.992 41.9648C208.289 42.2093 206.256 44.6286 206.485 47.3328C206.497 47.4623 206.354 47.5078 206.264 47.418C205.333 46.3274 203.918 45.6559 202.39 45.7126C198.894 45.8494 192.46 46.3335 185.161 46.9939C177.862 47.6542 171.462 48.3311 168.03 48.8209C165.535 49.1935 163.741 51.3628 163.821 53.8684C164.357 64.6704 164.879 72.4226 165.629 80.7089C165.766 82.2302 166.002 84.6564 166.195 86.6132C166.253 87.2444 165.54 87.6678 165.033 87.2895C162.118 85.1873 155.19 80.2174 152.191 78.2696C147.875 75.462 142.843 71.9686 140.056 69.8385C140.022 69.8252 140.019 69.7929 140.015 69.7443C139.775 67.0901 139.516 64.405 139.261 61.9479C139.051 59.813 138.858 57.8562 138.708 56.2054C138.602 55.024 138.439 53.766 138.239 52.4624C137.892 50.2421 135.905 48.6597 133.665 48.797L132.352 48.8832C130.793 48.9752 130.015 49.0293 128.785 49.1406C126.455 49.3514 123.65 49.9152 122.177 50.2279C119.92 50.7095 118.458 52.9466 118.94 55.2037L119.251 56.6603L119.295 57.1458C119.584 60.3341 120.184 69.4987 120.131 72.1631C120.133 72.1793 120.134 72.1955 120.104 72.2146C118.365 74.4604 110.742 81.8235 104.402 87.6674C104.327 87.7395 104.191 87.6865 104.182 87.5893L103.982 85.3721C103.774 83.0739 101.744 81.3811 99.4462 81.589L94.8013 82.0092C95.2165 81.368 95.4581 80.6119 95.4658 79.7953C95.4666 78.0004 95.5238 75.2051 95.5914 71.9846C95.7791 63.2382 96.0017 52.3511 95.5624 47.4959C95.296 44.5503 95.1146 42.005 94.9202 39.314C94.7432 36.8173 94.5575 34.2234 94.2925 31.2941C94.4544 31.2794 94.6133 31.2324 94.7707 31.1692L111.88 23.8779C112.289 23.7104 112.603 23.3883 112.762 22.9823C112.921 22.5764 112.912 22.1203 112.73 21.7288C112.533 21.3551 108.27 12.1138 99.1424 12.9396C98.5598 12.9923 98.055 13.3643 97.7929 13.8938L91.411 26.4966C90.9403 26.3434 90.4269 26.2593 89.8913 26.2914C87.6167 26.3993 85.2833 26.5777 82.7585 26.8061C77.612 27.2717 72.6109 27.9036 67.7718 28.5209C63.2225 29.0956 58.9321 29.6469 54.8051 30.0203C51.1475 30.3512 47.6782 30.5997 44.306 30.8395C40.9824 31.0749 37.5455 31.3206 33.9688 31.6442C30.295 31.9765 26.8212 32.356 23.371 32.815C23.3224 32.8194 23.2886 32.8062 23.2518 32.7605L14.6545 21.415C14.3016 20.9411 13.7382 20.6657 13.1556 20.7185C4.02769 21.5442 1.49283 31.4004 1.38378 31.8182C1.27472 32.2359 1.34809 32.6862 1.57743 33.057C1.80678 33.4279 2.17301 33.6884 2.60551 33.7799L19.4966 37.6037C19.4966 37.6037 19.5833 37.6611 19.5892 37.7258C19.8835 40.9789 20.018 42.8268 20.1086 44.1892C20.2739 46.377 20.3396 47.4643 20.8015 51.1264C21.9787 60.5325 24.8469 78.8904 26.6577 86.2812C26.8354 86.983 27.1853 87.604 27.6544 88.1001L21.0674 88.6959C18.7693 88.9039 17.0765 90.9334 17.2844 93.2316L18.2419 103.816C18.4439 106.049 20.4426 107.761 22.6966 107.606C24.8211 107.463 26.9133 107.323 28.9716 107.169C29.0364 107.163 29.1069 107.222 29.1143 107.303C29.1637 108.571 29.1868 109.548 29.2086 110.33C29.2606 112.348 29.2955 113.455 29.5531 116.303C29.9192 120.349 30.3459 123.623 31.1086 128.987C31.4195 131.162 33.3402 132.734 35.531 132.601L41.063 132.247C49.8244 131.7 54.2206 131.416 63.2838 130.596C73.6093 129.662 83.8407 128.59 97.5313 126.976C98.6451 126.842 99.6046 126.266 100.248 125.441C100.292 125.388 100.357 125.382 100.41 125.426C101.176 125.961 102.117 126.267 103.122 126.193C113.174 125.479 125.939 124.455 135.633 123.578C145.328 122.701 156.096 121.612 166.467 120.462C168.293 120.264 169.734 118.878 170.101 117.164C170.123 117.047 170.268 117.018 170.328 117.143C171.219 118.694 172.924 119.682 174.823 119.576C176.884 119.454 179.655 119.236 183.086 118.926C190.563 118.25 207.28 116.003 213.986 115.103C214.002 115.101 214.035 115.098 214.052 115.113C214.932 115.637 215.968 115.902 217.052 115.804L230.016 114.632C232.654 114.393 234.644 112.043 234.455 109.417C233.878 100.511 233.477 94.8199 232.742 86.3365C232.737 86.2717 232.795 86.2012 232.86 86.1953L235.077 85.9947L242.251 85.5741C243.08 85.5318 243.682 84.7921 243.575 83.9696L240.637 63.758L240.157 63.3282L240.126 63.3473ZM104.578 91.9591C109.068 87.849 123.064 74.8185 123.307 73.1811C123.591 71.2628 122.743 59.363 122.519 56.8868L122.457 56.2071L122.112 54.5577C122.001 54.0457 122.329 53.5265 122.842 53.4311C124.236 53.1418 126.896 52.6075 129.065 52.4113C130.57 52.2751 131.398 52.2328 133.963 52.0824C134.448 52.0385 134.906 52.405 134.983 52.9038C135.198 54.1898 135.34 55.4007 135.444 56.5497C135.789 60.3692 136.384 65.8631 136.845 71.1406C136.869 71.3995 136.988 71.6335 137.182 71.7954C141.935 75.6404 154.689 83.3303 159.844 87.1063C160.945 87.9203 161.104 89.4887 160.168 90.5035L155.366 95.686C154.698 96.4154 153.805 96.8226 152.882 96.906C151.96 96.9895 150.974 96.736 150.167 96.1074C145.287 92.3066 135.933 85.4023 132.32 83.5264C132.166 83.4425 131.983 83.41 131.821 83.4247C131.579 83.4466 131.345 83.5657 131.184 83.776C129.64 85.6453 127.79 87.5585 125.631 89.4834C123.985 90.9539 117.356 96.4976 113.318 99.8326C112.679 100.347 111.939 100.643 111.178 100.711C109.867 100.83 108.53 100.298 107.694 99.1666L104.893 95.4387L104.581 91.9915L104.578 91.9591ZM97.9009 122.945C97.9228 123.367 97.5975 123.739 97.162 123.795C84.2129 125.309 73.8388 126.427 63.0115 127.406C52.1843 128.386 48.0574 128.58 35.2249 129.398C34.8041 129.436 34.4158 129.112 34.3616 128.693C33.6033 123.377 33.1766 120.103 32.8091 116.041C32.4416 111.979 32.5521 111.757 32.3791 106.959C36.7238 106.647 40.9214 106.333 44.988 106.014L45.906 116.162C45.9455 116.599 46.3338 116.922 46.7708 116.883L96.1327 112.417C96.5535 112.379 96.9388 112.671 96.993 113.09C97.37 115.813 97.7479 119.451 97.8832 122.93L97.9009 122.945ZM61.7312 101.35C50.111 102.402 36.9871 103.426 22.3729 104.389C21.9359 104.428 21.5462 104.088 21.5081 103.667L20.5271 92.824C20.4876 92.387 20.8115 91.9988 21.2484 91.9592L53.3418 89.0559C53.7787 89.0164 54.1026 88.6281 54.063 88.1911L53.76 84.841C53.7204 84.404 53.3322 84.0802 52.8952 84.1197L30.6743 86.1299C30.2858 86.1651 29.9211 85.9207 29.8212 85.5381C28.0941 78.5313 25.2376 60.4824 24.0325 50.7688C23.276 44.7511 23.5874 45.8488 22.7865 36.996C22.7821 36.9475 22.7939 36.8975 22.8042 36.8313L23.393 36.1253C23.393 36.1253 23.471 36.0856 23.5034 36.0827C27.373 35.5695 30.8967 35.2017 34.2469 34.8987C41.4003 34.2515 47.7518 33.938 55.0832 33.2748C63.758 32.49 73.1966 30.9508 83.0366 30.0606C85.351 29.8513 87.6844 29.6728 90.0399 29.5576C90.4784 29.5343 90.8519 29.8757 90.8915 30.3127C91.4932 36.9644 91.7192 41.6269 92.2843 47.874C92.8495 54.1211 92.1908 73.3528 92.1761 79.8645C92.1804 80.272 91.8521 80.6117 91.4475 80.6483L69 82.6791C68.563 82.7186 68.2392 83.1069 68.2787 83.5438L68.5818 86.894C68.6213 87.331 69.0096 87.6548 69.4465 87.6153L99.8405 84.8657C100.278 84.8261 100.666 85.15 100.705 85.5869L101.686 96.4304C101.726 96.8674 101.402 97.2556 100.965 97.2951C86.4785 98.9483 73.3853 100.312 61.7003 101.369L61.7312 101.35ZM166.965 116.224C167.012 116.742 166.629 117.2 166.113 117.263C155.272 118.456 144.034 119.587 135.343 120.373C126.653 121.16 113.905 122.199 102.897 122.982C102.379 123.029 101.935 122.629 101.888 122.111L101.055 112.902C101.007 112.368 101.39 111.909 101.924 111.861L165.091 106.146C165.625 106.098 166.084 106.481 166.132 107.015L166.965 116.224ZM239.85 80.668C239.932 81.5743 239.269 82.3685 238.363 82.4505L230.821 83.1328C229.931 83.2133 229.254 84.0251 229.336 84.9314C230.172 94.3521 230.59 100.237 231.198 109.662C231.262 110.554 230.598 111.332 229.708 111.412L216.744 112.585C216.016 112.651 215.36 112.253 215.091 111.625C214.95 111.687 214.807 111.732 214.662 111.746C209.181 112.486 190.644 114.995 182.778 115.707C179.363 116.016 176.658 116.228 174.645 116.345C173.784 116.39 173.044 115.788 172.92 114.951C171.284 103.905 169.933 92.3939 168.852 80.4499C168.057 71.6619 167.549 63.6964 167.06 53.7874C167.031 52.9253 167.633 52.1855 168.47 52.0608C172.063 51.5563 178.755 50.853 185.439 50.2483C192.123 49.6437 198.831 49.1184 202.49 48.9832C203.368 48.9527 204.096 49.6048 204.175 50.4787L205.235 62.1961C205.317 63.1024 204.656 63.9128 203.75 63.9948L182.679 67.5327L182.725 68.7685C182.841 70.9445 182.827 71.1579 182.949 72.6806C183.014 73.5884 183.825 74.2494 184.731 74.1674L205.706 72.2699C206.612 72.1879 207.423 72.8488 207.505 73.7551L208.548 85.2945C208.63 86.2008 207.953 87.0126 207.047 87.0946L186.17 90.615C185.248 90.6984 184.587 91.5088 184.686 92.4298C185.022 95.418 185.144 96.2229 185.378 98.0944C185.491 98.9816 186.281 99.5954 187.171 99.5149C187.171 99.5149 187.187 99.5134 187.203 99.512L213.159 96.5765C213.369 96.5575 213.566 96.5723 213.766 96.6194L209.701 46.9929C209.637 46.1013 210.299 45.3071 211.189 45.2266L224.153 44.0538C225.043 43.9733 225.837 44.6357 225.934 45.5244C226.791 53.3767 227.034 59.6693 227.565 66.0826C227.647 66.989 228.459 67.6661 229.365 67.5841L236.956 66.8974C237.862 66.8154 238.658 67.494 238.738 68.3842L239.85 80.668Z" fill="#00031D"/>
</g>
<defs>
<filter id="filter0_d_62_709" x="0.402344" y="0.559082" width="254.863" height="144.829" filterUnits="userSpaceOnUse" color-interpolation-filters="sRGB">
<feFlood flood-opacity="0" result="BackgroundImageFix"/>
<feColorMatrix in="SourceAlpha" type="matrix" values="0 0 0 0 0 0 0 0 0 0 0 0 0 0 0 0 0 0 127 0" result="hardAlpha"/>
<feOffset dx="5" dy="6"/>
<feGaussianBlur stdDeviation="2"/>
<feComposite in2="hardAlpha" operator="out"/>
<feColorMatrix type="matrix" values="0 0 0 0 0 0 0 0 0 0 0 0 0 0 0 0 0 0 0.25 0"/>
<feBlend mode="normal" in2="BackgroundImageFix" result="effect1_dropShadow_62_709"/>
<feBlend mode="normal" in="SourceGraphic" in2="effect1_dropShadow_62_709" result="shape"/>
</filter>
</defs>
</svg>
