<svg width="248" height="50" viewBox="0 0 248 50" fill="none" xmlns="http://www.w3.org/2000/svg">
<g clip-path="url(#clip0_62_27)">
<path d="M164.921 16.1953L162.832 16.4003L163.873 28.4954L167.564 28.0171L164.921 16.1953Z" fill="#00031D"/>
<path d="M106.101 33.9824C106.101 33.9824 109.4 38.1986 109.075 37.8911L109.434 40.317H105.378V34.4608L106.101 33.9824Z" fill="#00031D"/>
<path d="M103.972 7.43457L102.181 31.5086L96.929 30.5383L100.768 7.94024L103.972 7.43457Z" fill="#00031D"/>
<path d="M73.7106 30.1421H69.1819V38.2191H74.1297L75.5695 31.0714L75.6371 30.7502L73.6093 30.0669" fill="#00031D"/>
<path d="M103.972 7.43476L102.046 30.1626C102.019 30.4428 101.728 30.6068 101.485 30.477C100.423 29.9098 98.0779 28.6251 98.017 28.3586C97.9494 28.0375 101.633 9.90845 102.073 7.72859C102.1 7.59192 102.194 7.48942 102.323 7.44159L103.458 7.03159C103.722 6.93592 103.999 7.14775 103.972 7.43476Z" fill="#00031D"/>
<path d="M71.5813 7.5166L73.6091 49.2004H158.777L158.655 43.0708L103.181 42.9L105.425 36.4971V30.5383V29.937L101.998 30.0668L103.35 8.19994L71.5813 7.5166Z" fill="#00031D"/>
<path d="M131.043 18.4502L158.777 17.0835V48.5171L131.739 49.2005L131.043 18.4502Z" fill="#00031D"/>
<path d="M169.064 43.9933L179.731 31.4335L181.082 23.2334L167.402 40.9046L169.064 43.9933Z" fill="#00031D"/>
<path d="M246.743 10.0862L164.921 16.1884C163.779 16.3046 162.961 17.3501 163.11 18.4981L163.731 23.2883L163.961 27.812H158.702C158.709 27.0877 158.73 26.3633 158.743 25.6185C158.784 23.8145 158.824 21.9558 158.784 19.7828C158.763 18.6689 157.851 17.7533 156.749 17.7533C155.154 17.7533 152.916 17.7533 151.315 17.7533C150.213 17.7533 149.307 18.6621 149.293 19.776V20.0015C148.956 19.4343 148.354 19.0379 147.658 18.9969C146.204 18.9218 143.521 18.8808 140.473 18.8808C137.424 18.8808 134.747 18.9218 133.308 18.9969C132.26 19.0584 131.435 19.899 131.374 20.9513C131.192 25.4955 131.118 28.7619 131.118 32.2606C131.118 32.9302 131.124 34.0304 131.138 34.8641C131.138 35.0896 130.881 35.2126 130.712 35.0623C129.637 34.1193 126.846 31.6797 125.643 30.7231C123.946 29.3769 121.986 27.7095 120.911 26.7187C120.911 25.5912 120.904 24.45 120.891 23.3977C120.884 22.4956 120.877 21.6688 120.877 20.9718C120.877 20.4593 120.857 19.9058 120.816 19.3386C120.756 18.4229 120.019 17.7054 119.113 17.6781L118.518 17.6576C117.869 17.6371 117.545 17.6303 117.031 17.6303C116.058 17.6303 114.875 17.7601 114.253 17.8353C113.3 17.9514 112.611 18.8329 112.725 19.7965L112.8 20.4183V20.6233C112.8 21.9763 112.705 25.8645 112.584 26.9579C111.793 27.8257 108.278 30.6821 105.405 32.9097V31.8096C105.405 30.8666 104.648 30.1081 103.722 30.1081H101.728C101.924 29.8552 102.053 29.5477 102.086 29.206C102.154 28.4544 102.282 27.2859 102.431 25.9397C102.837 22.2838 103.337 17.7328 103.337 15.6827C103.337 14.4391 103.357 13.3662 103.377 12.2319C103.398 11.1795 103.418 10.0862 103.418 8.84934C103.485 8.84934 103.553 8.83567 103.621 8.81517L110.982 6.40982C111.157 6.35515 111.299 6.23215 111.38 6.06815C111.461 5.90415 111.475 5.71281 111.414 5.54198C111.353 5.37114 109.934 1.31893 106.095 1.33943C105.872 1.33943 105.662 1.46927 105.54 1.6606L102.411 6.72415C102.221 6.64215 102.012 6.58749 101.789 6.58065C100.843 6.53965 99.8692 6.52599 98.8148 6.52599C96.6653 6.52599 94.5699 6.60115 92.5421 6.67632C90.636 6.74465 88.838 6.81299 87.1144 6.81299C85.5868 6.81299 84.1403 6.78565 82.7343 6.75832C81.3487 6.73099 79.9157 6.70365 78.4219 6.70365C76.874 6.70365 75.414 6.73099 73.9607 6.79249L70.7906 1.6606C70.6689 1.46927 70.4661 1.33943 70.2363 1.33943C66.4038 1.32577 64.9775 5.37114 64.9167 5.54198C64.8559 5.71281 64.8694 5.90415 64.9505 6.06815C65.0316 6.23215 65.1736 6.35515 65.3493 6.40982L72.2438 8.66484C72.2438 10.0657 72.2303 10.8515 72.2168 11.4324C72.2033 12.3549 72.1898 12.8127 72.2438 14.3639C72.379 18.3478 72.8792 26.1447 73.3524 29.3085C73.3997 29.6092 73.5213 29.8826 73.6971 30.1081H70.8987C69.9659 30.1081 69.2157 30.8734 69.2157 31.8096V36.388C69.2157 37.3036 69.9592 38.069 70.8649 38.0895C71.7707 38.11 72.6899 38.1305 73.5889 38.151C73.5551 38.7181 73.5281 39.135 73.5078 39.4835C73.4538 40.3308 73.4267 40.7955 73.4267 41.9982C73.4267 43.7134 73.4808 45.1142 73.6025 47.4171C73.6498 48.3054 74.3663 49.0229 75.245 49.0434L77.5972 49.1049C81.2473 49.2074 83.079 49.2552 86.8643 49.2552C91.1767 49.2552 95.4554 49.1937 101.187 49.0366C101.667 49.0229 102.1 48.7974 102.404 48.4626C102.701 48.7359 103.093 48.9067 103.533 48.9136C107.724 48.9956 113.05 49.0502 117.099 49.0502C121.148 49.0502 125.649 49.0024 129.989 48.9136C130.8 48.8999 131.483 48.3054 131.658 47.5332C131.942 48.2849 132.638 48.8247 133.483 48.8521C134.342 48.8794 135.498 48.8931 136.931 48.8931C140.053 48.8931 147.09 48.5856 149.888 48.4626C150.233 48.7222 150.659 48.8726 151.119 48.8726H156.533C157.635 48.8726 158.547 47.9637 158.567 46.8567C158.662 43.0915 158.709 40.6862 158.723 37.0713H159.696L164.448 37.2285L164.509 38.438C164.509 38.479 164.509 38.52 164.509 38.561V38.6156L164.516 38.6225C164.556 38.9983 164.678 39.3673 164.908 39.6885L167.212 42.948C167.463 43.3034 167.801 43.604 168.206 43.768C169.038 44.1029 169.923 43.9184 170.545 43.358C173.107 41.0142 179.19 34.9871 180.366 29.6229C180.609 28.5227 180.806 27.4635 180.974 26.459L181.691 48.4626C181.718 49.2211 182.333 49.8156 183.083 49.8088L246.628 49.1391C247.385 49.1322 247.993 48.5104 247.993 47.7451V11.241C247.993 10.5577 247.405 10.0179 246.736 10.0862H246.743ZM105.425 34.6659C107.44 33.1147 113.726 28.1879 113.888 27.5114C114.077 26.7187 114.172 21.703 114.172 20.6575V20.3705L114.091 19.6666C114.064 19.4479 114.219 19.2429 114.436 19.2224C115.024 19.1541 116.146 19.0311 117.051 19.0311C117.68 19.0311 118.025 19.0448 119.093 19.0789C119.296 19.0789 119.471 19.2498 119.485 19.4616C119.525 20.0083 119.539 20.5208 119.539 21.006C119.539 22.6186 119.579 24.942 119.573 27.1697C119.573 27.279 119.613 27.3815 119.688 27.4567C121.513 29.247 126.508 32.9507 128.502 34.7274C128.928 35.1101 128.934 35.7729 128.509 36.1624L126.325 38.151C126.021 38.4311 125.636 38.5678 125.251 38.5678C124.865 38.5678 124.466 38.4243 124.156 38.1305C122.276 36.3538 118.66 33.1079 117.234 32.1854C117.173 32.1444 117.099 32.1239 117.031 32.1239C116.93 32.1239 116.828 32.1649 116.754 32.2469C116.044 32.9712 115.206 33.7024 114.24 34.4268C113.503 34.9803 110.549 37.0508 108.751 38.2945C108.467 38.4858 108.149 38.5815 107.832 38.5815C107.284 38.5815 106.75 38.3081 106.446 37.8025L105.425 36.1351V34.6796V34.6659ZM101.498 47.3897C101.491 47.5674 101.343 47.7109 101.16 47.7177C95.7393 47.8612 91.3998 47.9364 86.8778 47.9364C82.3558 47.9364 80.6389 47.8612 75.2923 47.7177C75.1165 47.7177 74.9678 47.5674 74.9611 47.3897C74.8462 45.1347 74.7921 43.7475 74.7921 42.0323C74.7921 40.3172 74.8462 40.2283 74.9543 38.2125C76.7658 38.2466 78.5165 38.274 80.2131 38.2945V42.579C80.2131 42.7635 80.3618 42.9138 80.5443 42.9138H101.16C101.336 42.9138 101.485 43.0505 101.491 43.2282C101.546 44.383 101.566 45.9205 101.491 47.3829L101.498 47.3897ZM87.3239 36.9756C82.4707 36.9756 76.9956 36.9073 70.9055 36.757C70.723 36.757 70.5743 36.5998 70.5743 36.4221V31.8437C70.5743 31.6592 70.723 31.5089 70.9055 31.5089H84.3092C84.4918 31.5089 84.6405 31.3586 84.6405 31.1741V29.7596C84.6405 29.575 84.4918 29.4247 84.3092 29.4247H75.0287C74.8665 29.4247 74.7245 29.3085 74.6975 29.1445C74.2446 26.1447 73.7376 18.4776 73.6025 14.3639C73.5146 11.815 73.6025 12.2865 73.6025 8.54867C73.6025 8.52817 73.6092 8.50767 73.616 8.48034L73.8863 8.207C73.8863 8.207 73.9201 8.19334 73.9337 8.19334C75.5559 8.125 77.0294 8.1045 78.4286 8.1045C81.4163 8.1045 84.0592 8.21384 87.1211 8.21384C90.7441 8.21384 94.7119 7.92683 98.8215 7.92683C99.7881 7.92683 100.761 7.9405 101.742 7.9815C101.924 7.98833 102.066 8.1455 102.066 8.33C102.066 11.1385 101.985 13.0997 101.985 15.7374C101.985 18.3751 100.991 26.4044 100.741 29.1309C100.728 29.3017 100.579 29.4315 100.41 29.4315H91.0348C90.8523 29.4315 90.7036 29.5819 90.7036 29.7664V31.1809C90.7036 31.3654 90.8523 31.5157 91.0348 31.5157H103.729C103.911 31.5157 104.06 31.6661 104.06 31.8506V36.429C104.06 36.6135 103.911 36.7638 103.729 36.7638C97.6657 36.9073 92.1906 36.9825 87.3104 36.9825L87.3239 36.9756ZM130.354 47.1916C130.354 47.4102 130.178 47.5879 129.962 47.5947C125.426 47.6836 120.729 47.7314 117.099 47.7314C113.469 47.7314 108.149 47.6836 103.56 47.5947C103.344 47.5947 103.175 47.4102 103.175 47.1916V43.3034C103.175 43.0779 103.35 42.9002 103.573 42.9002H129.955C130.178 42.9002 130.354 43.0779 130.354 43.3034V47.1916ZM158.054 35.7524C157.682 35.7524 157.371 36.0668 157.371 36.4495C157.364 40.4265 157.317 42.907 157.215 46.8772C157.209 47.2531 156.905 47.5537 156.533 47.5537H151.119C150.814 47.5537 150.557 47.3624 150.47 47.0891C150.409 47.1096 150.348 47.1232 150.287 47.1232C147.989 47.2257 140.216 47.5742 136.931 47.5742C135.504 47.5742 134.376 47.5606 133.537 47.5332C133.179 47.5196 132.895 47.2394 132.875 46.8841C132.611 42.1963 132.483 37.3241 132.483 32.2811C132.483 28.5705 132.571 25.2153 132.74 21.047C132.76 20.6848 133.037 20.3978 133.389 20.3773C134.896 20.3021 137.694 20.2611 140.486 20.2611C143.278 20.2611 146.076 20.2953 147.597 20.3773C147.962 20.3978 148.239 20.6985 148.239 21.0675V26.0148C148.239 26.3975 147.935 26.7119 147.556 26.7119L138.695 27.3952L138.668 27.9145C138.634 28.8302 138.621 28.919 138.614 29.5614C138.607 29.9441 138.918 30.2516 139.296 30.2516H148.057C148.435 30.2516 148.746 30.5591 148.746 30.9417V35.8139C148.746 36.1966 148.435 36.511 148.057 36.511L139.276 37.1943C138.891 37.1943 138.587 37.5086 138.593 37.8981C138.62 39.1623 138.641 39.504 138.668 40.2967C138.681 40.6725 138.986 40.9595 139.357 40.9595C139.357 40.9595 139.364 40.9595 139.371 40.9595L150.233 40.7135C150.321 40.7135 150.402 40.7272 150.483 40.7545L150.659 19.817C150.666 19.4411 150.97 19.1336 151.342 19.1336H156.756C157.128 19.1336 157.432 19.4411 157.438 19.817C157.499 23.138 157.364 25.7825 157.344 28.4885C157.344 28.8712 157.655 29.1855 158.033 29.1855H161.203C161.582 29.1855 161.886 29.4999 161.886 29.8757V35.0623C161.886 35.4449 161.582 35.7524 161.203 35.7524H158.054ZM187.768 47.5537H183.638C183.347 47.5537 183.104 47.3146 183.104 47.0139V17.6234C183.104 17.3296 183.34 17.0836 183.638 17.0836H187.768C188.058 17.0836 188.302 17.3228 188.302 17.6234V47.0207C188.302 47.3146 188.065 47.5606 187.768 47.5606V47.5537ZM245.972 21.8328C245.972 22.2018 245.682 22.5025 245.317 22.5161L226.343 23.2132C225.978 23.2268 225.992 24.5798 226.363 24.5798C226.37 24.5798 226.377 24.5798 226.384 24.5798L245.283 23.9443C245.283 23.9443 245.296 23.9443 245.303 23.9443C245.668 23.9443 245.966 24.2382 245.979 24.6072C245.979 24.6072 246.033 27.6207 246.02 27.6207C246.02 27.6207 245.999 27.6207 245.993 27.6207C245.979 27.6207 245.966 27.6207 245.959 27.6207L227.959 28.3792H220.963C220.591 28.3792 220.287 28.0717 220.287 27.6959V21.006C220.287 20.8215 220.361 20.6506 220.476 20.5276C220.598 20.4046 220.76 20.3295 220.942 20.3226L239.226 19.8375L239.632 19.8238C239.774 19.8238 239.882 19.7008 239.882 19.5641V18.4639C239.882 17.7669 239.578 17.7669 239.206 17.7669C239.206 17.7669 239.199 17.7806 239.193 17.7806L220.963 18.0676C220.963 18.0676 220.956 18.0676 220.949 18.0676C220.577 18.0676 220.273 17.7601 220.273 17.3843V14.3229C220.273 14.2341 220.294 14.1452 220.321 14.0632C220.381 13.9061 220.51 13.7762 220.659 13.7011C220.733 13.6669 220.821 13.6396 220.909 13.6396L245.918 12.3412C245.918 12.3412 245.938 12.3412 245.952 12.3412C246.324 12.3412 246.628 12.6487 246.628 13.0245L245.952 21.8328H245.972ZM199.36 22.2155H192.668C192.621 22.2155 192.58 22.1745 192.58 22.1266C192.58 22.072 192.58 22.0173 192.56 21.9695C192.06 19.858 191.844 17.6713 192.053 17.0836L215.4 16.4071C215.623 17.0358 215.4 19.3659 214.9 21.6278C214.886 21.6756 214.886 21.7303 214.886 21.7781C214.886 21.826 214.846 21.867 214.798 21.867H208.14C207.606 21.867 207.12 22.1608 206.87 22.6391C206.619 23.1107 206.646 23.6847 206.937 24.1288C209.857 28.591 214.271 31.4064 216.035 32.4109C216.069 32.4314 216.089 32.4724 216.076 32.5134L214.555 37.1191C214.555 37.1191 214.541 37.1601 214.501 37.1738C214.474 37.1806 214.447 37.1738 214.42 37.167C208.749 33.5453 206.18 30.9349 205.153 29.698C204.882 29.37 204.477 29.1787 204.058 29.1787C203.632 29.1787 203.226 29.37 202.942 29.7049C199.029 34.3926 195.216 36.5793 193.756 37.2968C193.75 37.2968 193.723 37.3105 193.689 37.2968C193.662 37.2831 193.648 37.2695 193.635 37.2421L192.127 32.5886C192.127 32.5886 192.154 32.5476 192.195 32.5339C199.286 30.2106 200.577 25.6868 200.8 23.8487C200.854 23.4318 200.725 23.015 200.448 22.7006C200.178 22.3863 199.779 22.2086 199.367 22.2086L199.36 22.2155ZM189.87 46.9251V40.9527C189.87 40.6042 190.154 40.3172 190.498 40.3172H217.536C217.88 40.3172 218.164 40.6042 218.164 40.9527V46.9251C218.164 47.2736 217.88 47.5606 217.536 47.5606H190.498C190.154 47.5606 189.87 47.2736 189.87 46.9251ZM220.307 46.5834L220.523 37.7136C220.537 37.1943 220.956 36.7775 221.476 36.7775H229.452C229.703 36.7775 229.912 36.5725 229.912 36.3128V35.2263C229.912 35.0213 229.743 34.8504 229.54 34.8504H220.571C220.043 34.8504 219.618 34.4199 219.618 33.8869V31.0101C219.618 30.4839 220.037 30.0602 220.55 30.0466L246.026 28.9737C246.026 28.9737 246.026 28.9737 246.033 28.9737C246.371 28.9737 246.648 29.2539 246.648 29.5955V33.2583C246.648 33.7776 246.236 34.2081 245.722 34.2218L235.914 34.4883C235.678 34.4951 235.495 34.6864 235.495 34.9256V35.9438C235.495 36.2786 235.759 36.552 236.09 36.5588L245.033 36.6818C245.553 36.6886 245.972 37.1191 245.972 37.6453V46.8499C245.972 47.3829 245.546 47.8134 245.019 47.8134C245.019 47.8134 245.012 47.8134 245.006 47.8134L221.247 47.5537C220.719 47.5537 220.294 47.1027 220.307 46.5697V46.5834ZM169.646 42.4013C169.477 42.5517 169.274 42.6268 169.065 42.6268C168.794 42.6268 168.524 42.497 168.355 42.2578L166.016 38.9505C165.746 38.5678 165.807 38.0348 166.165 37.7273L171.944 32.7799C172.228 32.5681 172.079 32.1171 171.728 32.1171H166.205C165.827 32.1171 165.523 31.8096 165.523 31.4269V27.2449C165.523 26.9169 165.786 26.6504 166.111 26.6504H174.269C174.675 26.6504 175.067 23.917 174.783 23.917H166.172C165.807 23.917 165.516 23.6163 165.516 23.2542L164.84 19.0516C164.84 18.7236 165.104 18.4571 165.428 18.4571H179.643C180.048 18.4571 180.38 18.7919 180.366 19.2088C180.312 20.7873 180.069 24.6892 179.035 29.3905C177.919 34.4609 171.762 40.4538 169.626 42.4082L169.646 42.4013Z" fill="#00031D"/>
<path d="M50.9787 1.05943C50.3839 1.3601 49.762 1.66761 49.2618 2.10494C47.0447 4.0593 44.8682 6.06148 42.6377 8.08417C33.7897 2.31678 24.7254 2.30994 15.4989 8.33017C13.0723 4.74264 10.0239 1.96828 6.02234 0.423926C3.46731 -0.566917 1.67608 0.177924 0.7095 2.69262C0.256625 3.86796 -0.10838 5.22781 0.0268072 6.45099C0.547276 11.248 2.60887 15.2934 6.56984 18.1224C7.58374 18.8468 7.47559 19.4208 7.34717 20.521C6.95513 23.8557 6.34679 27.2997 6.77938 30.5729C8.2732 41.8822 18.5068 50.5401 30.4235 49.9798C40.549 49.5014 49.8566 41.5952 51.6343 31.5296C52.3914 27.2724 52.1075 23.0903 50.7894 18.9766C51.2896 18.6281 51.7019 18.3753 52.0805 18.0746C56.0482 14.9449 58.3734 10.8722 58.4275 5.74715C58.4815 0.717763 55.3655 -1.15459 50.9719 1.06627L50.9787 1.05943ZM12.295 14.0839C10.4227 13.8174 8.53005 13.6261 6.68475 13.2366C6.0291 13.0999 5.1977 12.6215 4.92057 12.0544C4.45417 11.1182 3.90667 9.79935 4.23111 8.98618C4.69751 7.83817 6.08317 7.81767 7.27281 8.33701C7.46884 8.42584 7.67162 8.50784 7.92171 8.61718C7.94875 8.08417 7.85412 7.599 8.0231 7.25049C8.29347 6.69699 8.68552 5.90431 9.14515 5.80865C9.71293 5.69248 10.7201 6.00682 10.9769 6.46465C11.592 7.54433 12.0314 8.78801 12.2477 10.018C12.4572 11.1934 12.295 12.437 12.295 14.0771V14.0839ZM29.3218 42.9004C20.4806 42.9209 13.4779 35.944 13.4373 27.0742C13.3968 18.0404 20.2981 10.961 29.2001 10.9064C37.967 10.8517 45.0034 17.8628 45.1116 26.7599C45.2265 35.6911 38.1968 42.8799 29.3218 42.9004ZM54.0204 11.5555C52.9118 13.3186 51.0125 13.7559 49.0861 13.8994C48.133 13.9677 47.1597 13.8242 46.1931 13.7764C46.2809 12.0065 46.3147 10.3734 46.4634 8.74701C46.5175 8.15934 46.6865 7.435 47.0718 7.05233C47.6666 6.46465 48.5453 5.71298 49.2077 5.80181C49.7214 5.87015 50.1067 7.09333 50.5123 7.8245C50.6204 8.01584 50.5664 8.29601 50.5934 8.56934C51.053 8.39851 51.4856 8.06367 51.8371 8.13884C52.7293 8.33701 53.8784 8.49417 54.3583 9.10918C54.7166 9.57385 54.4327 10.8859 54.0136 11.5555H54.0204Z" fill="#00031D"/>
<path d="M29.1936 10.9066C20.2916 10.9612 13.3903 18.0406 13.4308 27.0744C13.4714 35.9441 20.4741 42.9279 29.3153 42.9006C38.1835 42.8801 45.2132 35.6913 45.1051 26.7601C44.9902 17.863 37.9605 10.8519 29.1936 10.9066ZM22.3532 26.7669C21.7178 27.2931 20.1293 27.3751 19.4399 26.9104C18.764 26.4526 18.3381 25.0312 18.453 24.1087C18.595 22.9402 19.3791 21.8537 20.0685 20.3367C20.3389 21.0337 20.5011 21.4368 20.6904 21.9152C20.9269 21.471 21.1432 21.0473 21.3528 20.6647C21.5894 20.7193 21.7854 20.7057 21.8124 20.774C22.2585 21.799 22.9277 22.8035 23.0494 23.8695C23.1575 24.833 22.975 26.2476 22.3532 26.7669ZM37.4941 27.4161C36.007 27.2931 34.9999 26.2954 35.2162 24.8535C35.4392 23.398 36.2233 22.0313 36.8993 20.2615C37.271 21.061 37.4738 21.4983 37.778 22.1407C37.9807 21.5188 38.1227 21.0883 38.2646 20.6578C38.4201 20.6305 38.5688 20.5963 38.7243 20.569C39.2245 22.1407 40.0288 23.6919 40.1437 25.2909C40.2451 26.7532 38.9744 27.5391 37.5008 27.4161H37.4941Z" fill="white"/>
<path d="M51.8442 8.14549C51.4995 8.07032 51.0602 8.40516 50.6005 8.576C50.5735 8.30266 50.6276 8.02249 50.5194 7.83115C50.1206 7.09998 49.7286 5.8768 49.2149 5.80847C48.5524 5.71963 47.6737 6.47131 47.0789 7.05898C46.6936 7.44165 46.5246 8.16599 46.4706 8.75366C46.3219 10.38 46.2881 12.0132 46.2002 13.783C47.1668 13.8309 48.1401 13.9744 49.0932 13.906C51.0196 13.7694 52.919 13.332 54.0275 11.5622C54.4466 10.8994 54.7305 9.58051 54.3722 9.11583C53.8923 8.49399 52.7432 8.34366 51.851 8.14549H51.8442Z" fill="white"/>
<path d="M10.9772 6.47129C10.7204 6.02028 9.71321 5.70595 9.14543 5.81528C8.68579 5.90411 8.29375 6.69679 8.02338 7.25713C7.84764 7.60563 7.94903 8.09764 7.92199 8.62381C7.66513 8.51447 7.46911 8.43247 7.27309 8.34364C6.09021 7.8243 4.70455 7.83797 4.23139 8.99281C3.90018 9.79915 4.45445 11.1248 4.92084 12.061C5.19798 12.6213 6.02937 13.1065 6.68503 13.2432C8.53709 13.6327 10.4229 13.824 12.2953 14.0905C12.2953 12.4505 12.4575 11.2068 12.248 10.0315C12.0317 8.80148 11.5923 7.5578 10.9772 6.47812V6.47129Z" fill="white"/>
<path d="M38.2578 20.6576C38.1158 21.0881 37.9739 21.5186 37.7711 22.1404C37.4737 21.4981 37.2709 21.0607 36.8924 20.2612C36.2164 22.0311 35.4324 23.3978 35.2093 24.8533C34.993 26.2951 35.9934 27.2928 37.4872 27.4158C38.9607 27.532 40.2382 26.753 40.1301 25.2906C40.0152 23.6916 39.2108 22.1404 38.7106 20.5687C38.5552 20.5961 38.4065 20.6302 38.251 20.6576H38.2578Z" fill="#00031D"/>
<path d="M21.8124 20.7669C21.7853 20.7054 21.5893 20.7123 21.3527 20.6576C21.15 21.0471 20.9269 21.4639 20.6903 21.9081C20.5011 21.4229 20.3388 21.0198 20.0685 20.3296C19.379 21.8466 18.5949 22.9331 18.453 24.1016C18.3448 25.0241 18.7639 26.4455 19.4398 26.9033C20.1225 27.368 21.7177 27.286 22.3531 26.7598C22.975 26.2405 23.1575 24.826 23.0493 23.8625C22.9277 22.7964 22.2585 21.7851 21.8124 20.7669Z" fill="#00031D"/>
<path d="M81.0444 16.4003C82.1643 16.4003 83.0722 15.4825 83.0722 14.3503C83.0722 13.2181 82.1643 12.3003 81.0444 12.3003C79.9245 12.3003 79.0166 13.2181 79.0166 14.3503C79.0166 15.4825 79.9245 16.4003 81.0444 16.4003Z" fill="white"/>
<path d="M84.0861 14.3504C84.0861 12.6557 82.7207 11.2754 81.0444 11.2754C79.3681 11.2754 78.0027 12.6557 78.0027 14.3504C78.0027 16.0451 79.3681 17.4255 81.0444 17.4255C82.7207 17.4255 84.0861 16.0451 84.0861 14.3504ZM79.0166 14.3504C79.0166 13.2161 79.9223 12.3004 81.0444 12.3004C82.1664 12.3004 83.0722 13.2161 83.0722 14.3504C83.0722 15.4848 82.1664 16.4004 81.0444 16.4004C79.9223 16.4004 79.0166 15.4848 79.0166 14.3504Z" fill="#00031D"/>
<path d="M107.784 37.7479C108.318 38.4176 109.285 38.5133 109.94 37.9666C111.394 36.7503 113.739 34.8027 114.239 34.4269C115.206 33.7026 116.044 32.9714 116.754 32.247C116.828 32.1719 116.93 32.124 117.031 32.124C117.099 32.124 117.173 32.1445 117.234 32.1855C118.667 33.1081 122.276 36.3471 124.155 38.1306C124.466 38.4244 124.858 38.5679 125.25 38.5679C125.642 38.5679 126.021 38.4313 126.325 38.1511L128.745 35.9439C129.036 35.6774 129.036 35.2196 128.745 34.9531C126.954 33.2857 121.594 29.3292 119.681 27.4568C119.6 27.3817 119.566 27.2792 119.566 27.1698C119.566 24.9421 119.532 22.6256 119.532 21.0061C119.532 20.5209 119.512 20.0084 119.478 19.4618C119.464 19.2568 119.289 19.0859 119.086 19.0791C118.025 19.0449 117.673 19.0312 117.045 19.0312C116.139 19.0312 115.017 19.1543 114.429 19.2226C114.206 19.2499 114.05 19.4481 114.077 19.6736L114.158 20.3774V20.6644C114.158 21.7099 114.064 26.7325 113.874 27.5183C113.719 28.1607 107.96 32.6981 105.702 34.4474C105.54 34.5704 105.506 34.8027 105.621 34.9667C106.02 35.5476 107.014 36.7981 107.778 37.7479H107.784Z" fill="#FFEF41"/>
<path d="M129.955 42.9004H103.573C103.35 42.9004 103.175 43.0781 103.175 43.3036V47.1918C103.175 47.4104 103.344 47.5881 103.56 47.5949C108.149 47.6838 113.489 47.7316 117.099 47.7316C120.708 47.7316 125.426 47.6838 129.962 47.5949C130.178 47.5949 130.354 47.4104 130.354 47.1918V43.3036C130.354 43.0781 130.178 42.9004 129.955 42.9004Z" fill="#FFEF41"/>
<path d="M101.16 42.9206H80.5442C80.3617 42.9206 80.213 42.7703 80.213 42.5858V38.3012C78.5164 38.2807 76.759 38.2534 74.9542 38.2192C74.8461 40.2351 74.792 40.3923 74.792 42.0391C74.792 43.686 74.8461 45.1346 74.961 47.3965C74.9677 47.5742 75.1164 47.7177 75.2922 47.7245C80.6388 47.868 82.376 47.9432 86.8777 47.9432C91.3794 47.9432 95.7392 47.868 101.16 47.7245C101.336 47.7245 101.485 47.581 101.498 47.3965C101.572 45.9341 101.552 44.3966 101.498 43.2418C101.491 43.0641 101.343 42.9275 101.167 42.9275L101.16 42.9206Z" fill="#0CC6D2"/>
<path d="M104.074 36.422V31.8437C104.074 31.6592 103.925 31.5088 103.742 31.5088H91.0484C90.8659 31.5088 90.7172 31.3585 90.7172 31.174V29.7595C90.7172 29.575 90.8659 29.4246 91.0484 29.4246H100.424C100.593 29.4246 100.741 29.2948 100.755 29.124C101.012 26.3974 101.999 18.4707 101.999 15.7305C101.999 12.9903 102.086 11.1385 102.08 8.32309C102.08 8.13859 101.938 7.98826 101.755 7.97459C100.775 7.93359 99.8017 7.91992 98.8352 7.91992C94.7187 7.91992 90.751 8.20692 87.1347 8.20692C84.0728 8.20692 81.4299 8.09759 78.4422 8.09759C77.0431 8.09759 75.5695 8.11809 73.9473 8.18642C73.927 8.18642 73.9135 8.19326 73.9 8.20009L73.6296 8.47343C73.6296 8.47343 73.6161 8.51443 73.6161 8.54176C73.6161 12.2796 73.5282 11.8081 73.6161 14.357C73.7513 18.4707 74.2582 26.1446 74.7111 29.1376C74.7381 29.3016 74.8801 29.4178 75.0423 29.4178H84.3229C84.5054 29.4178 84.6541 29.5681 84.6541 29.7526V31.1672C84.6541 31.3517 84.5054 31.502 84.3229 31.502H70.9191C70.7366 31.502 70.5879 31.6523 70.5879 31.8368V36.4152C70.5879 36.5997 70.7366 36.75 70.9191 36.75C77.0093 36.8935 82.4843 36.9687 87.3375 36.9687C92.1907 36.9687 97.6928 36.9004 103.756 36.75C103.938 36.75 104.087 36.5929 104.087 36.4152L104.074 36.422ZM93.8873 11.2751C95.5636 11.2751 96.929 12.6555 96.929 14.3502C96.929 16.0448 95.5636 17.4252 93.8873 17.4252C92.211 17.4252 90.8456 16.0448 90.8456 14.3502C90.8456 12.6555 92.211 11.2751 93.8873 11.2751ZM78.0029 14.3502C78.0029 12.6555 79.3683 11.2751 81.0446 11.2751C82.7209 11.2751 84.0863 12.6555 84.0863 14.3502C84.0863 16.0448 82.7209 17.4252 81.0446 17.4252C79.3683 17.4252 78.0029 16.0448 78.0029 14.3502ZM80.7337 25.7141C80.5512 25.7141 80.4024 25.5638 80.4024 25.3793V20.589C80.4024 20.4045 80.5512 20.2542 80.7337 20.2542H82.2545V21.2041C82.2545 21.6141 82.3964 21.9421 82.9845 21.9421H84.2147C85.0934 21.9421 84.9447 21.6141 84.9447 21.2041V20.2542H90.3927V21.2041C90.3927 21.6141 90.5009 21.9421 91.1228 21.9421H92.407C93.2114 21.9421 93.1438 21.6004 93.137 21.1904V20.9786C93.137 20.9786 93.1168 20.9239 93.1168 20.8966V20.2542H93.9549C94.1374 20.2542 94.2861 20.4045 94.2861 20.589V25.3793C94.2861 25.5638 94.1374 25.7141 93.9549 25.7141H80.7337Z" fill="#0CC6D2"/>
<path d="M94.2861 25.3794V20.5892C94.2861 20.4047 94.1374 20.2544 93.9549 20.2544H93.1167V20.8967C93.1167 20.8967 93.137 20.9514 93.137 20.9787V21.1906C93.1505 21.6006 93.2114 21.9422 92.4138 21.9422H91.1295C90.5144 21.9422 90.3995 21.6142 90.3995 21.2042V20.2544H84.9515V21.2042C84.9515 21.6142 85.1069 21.9422 84.2214 21.9422H82.9912C82.4032 21.9422 82.2612 21.6142 82.2612 21.2042V20.2544H80.7404C80.5579 20.2544 80.4092 20.4047 80.4092 20.5892V25.3794C80.4092 25.5639 80.5579 25.7143 80.7404 25.7143H93.9616C94.1441 25.7143 94.2929 25.5639 94.2929 25.3794H94.2861Z" fill="#00031D"/>
<path d="M161.886 35.0624V29.8759C161.886 29.5001 161.582 29.1857 161.203 29.1857H158.033C157.655 29.1857 157.344 28.8714 157.344 28.4887C157.364 25.7827 157.499 23.1382 157.438 19.8171C157.432 19.4413 157.127 19.1338 156.756 19.1338H151.341C150.97 19.1338 150.666 19.4413 150.659 19.8171L150.483 40.7547C150.402 40.7273 150.321 40.7137 150.233 40.7137L139.371 40.9597C139.371 40.9597 139.364 40.9597 139.357 40.9597C138.985 40.9597 138.681 40.6727 138.668 40.2968C138.641 39.5042 138.62 39.1625 138.593 37.8983C138.587 37.5088 138.891 37.1945 139.276 37.1945L148.056 36.5111C148.435 36.5111 148.746 36.1968 148.746 35.8141V30.9419C148.746 30.5592 148.435 30.2517 148.056 30.2517H139.296C138.918 30.2517 138.607 29.9442 138.614 29.5616C138.62 28.9192 138.634 28.8304 138.668 27.9147L138.695 27.3954L147.556 26.712C147.935 26.712 148.239 26.3977 148.239 26.015V21.0676C148.239 20.6986 147.962 20.398 147.597 20.3775C146.083 20.3023 143.284 20.2613 140.486 20.2613C137.688 20.2613 134.896 20.2955 133.389 20.3775C133.037 20.398 132.76 20.685 132.74 21.0471C132.571 25.2155 132.483 28.5707 132.483 32.2813C132.483 37.3243 132.611 42.1965 132.875 46.8842C132.895 47.2396 133.179 47.5197 133.537 47.5334C134.376 47.5607 135.504 47.5744 136.931 47.5744C140.216 47.5744 147.989 47.2259 150.287 47.1234C150.348 47.1234 150.409 47.1097 150.47 47.0892C150.557 47.3626 150.814 47.5539 151.118 47.5539H156.533C156.904 47.5539 157.209 47.2532 157.215 46.8774C157.317 42.9072 157.364 40.4267 157.371 36.4496C157.371 36.067 157.682 35.7526 158.053 35.7526H161.203C161.582 35.7526 161.886 35.4451 161.886 35.0624Z" fill="#FFEF41"/>
<path d="M179.055 29.3836C180.089 24.6823 180.332 20.7736 180.386 19.2019C180.4 18.7919 180.075 18.4502 179.663 18.4502H165.448C165.124 18.4502 164.86 18.7167 164.86 19.0447L165.536 23.2472C165.536 23.6162 165.833 23.9101 166.192 23.9101H174.803C175.087 23.9101 174.695 26.6434 174.289 26.6434H166.131C165.806 26.6434 165.543 26.9099 165.543 27.238V31.42C165.543 31.8027 165.847 32.1102 166.225 32.1102H171.748C172.099 32.1102 172.248 32.5612 171.964 32.773L166.185 37.7204C165.827 38.0279 165.759 38.5609 166.036 38.9436L168.375 42.2509C168.544 42.4969 168.814 42.6199 169.085 42.6199C169.287 42.6199 169.497 42.5448 169.666 42.3944C171.802 40.4401 177.96 34.4472 179.075 29.3768L179.055 29.3836Z" fill="#FFEF41"/>
<path d="M187.768 17.0835H183.644C183.349 17.0835 183.11 17.3252 183.11 17.6233V47.0138C183.11 47.3119 183.349 47.5536 183.644 47.5536H187.768C188.062 47.5536 188.302 47.3119 188.302 47.0138V17.6233C188.302 17.3252 188.062 17.0835 187.768 17.0835Z" fill="#FFEF41"/>
<path d="M200.786 23.8556C200.563 25.6938 197.981 28.7005 191.506 32.5409C191.472 32.5614 191.445 32.5819 191.438 32.5956L192.945 37.9324C192.945 37.9324 192.972 37.9803 192.999 37.9871C193.033 38.0008 193.06 37.9871 193.067 37.9871C194.527 37.2628 199.022 34.3996 202.929 29.7119C203.206 29.377 203.612 29.1857 204.044 29.1857C204.47 29.1857 204.463 29.0627 204.74 29.3907C205.768 30.6275 210.148 34.1741 215.082 37.8573C215.109 37.8778 215.136 37.8778 215.163 37.8641C215.204 37.8504 215.217 37.8163 215.217 37.8094L216.684 32.6844L216.576 32.3086C214.717 30.6822 210.675 29.2609 206.863 24.0538C206.782 23.9445 206.721 23.8146 206.701 23.6848C206.538 22.6393 207.275 21.8808 208.134 21.8808H214.791C214.839 21.8808 214.879 21.8398 214.879 21.792C214.879 21.7441 214.879 21.6895 214.893 21.6416C215.386 19.4208 215.609 17.1247 215.407 16.4551C215.407 16.4346 215.386 16.4209 215.359 16.4209C214.44 16.4482 195.257 17.0017 192.398 17.0837C192.168 17.0837 191.992 17.2682 191.972 17.5006C191.911 18.3889 192.127 20.2134 192.547 21.9833C192.56 22.038 192.567 22.0858 192.567 22.1405C192.567 22.1883 192.607 22.2293 192.655 22.2293H199.346C199.759 22.2293 200.158 22.407 200.428 22.7213C200.698 23.0356 200.827 23.4525 200.779 23.8693L200.786 23.8556Z" fill="#FFEF41"/>
<path d="M217.536 40.3174H190.498C190.151 40.3174 189.87 40.6019 189.87 40.9529V46.9185C189.87 47.2694 190.151 47.554 190.498 47.554H217.536C217.883 47.554 218.164 47.2694 218.164 46.9185V40.9529C218.164 40.6019 217.883 40.3174 217.536 40.3174Z" fill="#FFEF41"/>
<path d="M245.972 12.3345C245.972 12.3345 245.952 12.3345 245.938 12.3345L220.929 13.6328C220.841 13.6328 220.753 13.6602 220.679 13.6943C220.523 13.7695 220.402 13.8993 220.341 14.0565C220.307 14.1385 220.293 14.2205 220.293 14.3162V17.3775C220.293 17.7534 220.598 18.0609 220.969 18.0609C220.969 18.0609 220.976 18.0609 220.983 18.0609L239.213 17.7739C239.213 17.7739 239.22 17.7602 239.226 17.7602C239.598 17.7602 239.902 17.7602 239.902 18.4572V19.5574C239.902 19.7009 239.787 19.817 239.652 19.817L239.247 19.8307L220.963 20.3159C220.78 20.3159 220.618 20.3979 220.496 20.5209C220.375 20.6439 220.307 20.8147 220.307 20.9992V27.6891C220.307 28.065 220.611 28.3725 220.983 28.3725H227.979L245.979 27.614C245.979 27.614 246.006 27.614 246.013 27.614C246.013 27.614 246.033 27.614 246.04 27.614C246.06 27.614 245.999 24.6004 245.999 24.6004C245.986 24.2314 245.688 23.9376 245.323 23.9376C245.317 23.9376 245.31 23.9376 245.303 23.9376L226.404 24.5731C226.404 24.5731 226.39 24.5731 226.384 24.5731C226.012 24.5731 225.998 23.2201 226.363 23.2064L245.337 22.5094C245.702 22.4957 245.992 22.1951 245.992 21.8261L246.668 13.0178C246.668 12.6351 246.364 12.3345 245.992 12.3345H245.972Z" fill="#FFEF41"/>
<path d="M245.012 47.8202C245.012 47.8202 245.019 47.8202 245.026 47.8202C245.553 47.8202 245.979 47.3897 245.979 46.8566V37.6521C245.979 37.1259 245.56 36.6954 245.039 36.6885L236.097 36.5655C235.766 36.5655 235.502 36.2854 235.502 35.9505V34.9324C235.502 34.6932 235.691 34.5019 235.921 34.495L245.729 34.2285C246.243 34.2149 246.655 33.7912 246.655 33.265V29.6023C246.655 29.2538 246.378 28.9805 246.04 28.9805C246.04 28.9805 246.04 28.9805 246.033 28.9805L220.557 30.0533C220.037 30.0601 219.624 30.4907 219.624 31.0168V33.8937C219.624 34.4267 220.05 34.8572 220.577 34.8572H229.547C229.75 34.8572 229.919 35.028 229.919 35.233V36.3195C229.919 36.5724 229.716 36.7842 229.459 36.7842H221.483C220.969 36.7842 220.544 37.2011 220.53 37.7204L220.314 46.5901C220.3 47.1232 220.726 47.5673 221.253 47.5742L245.012 47.8338V47.8202ZM225.424 41.2806C225.424 40.7476 225.85 40.3171 226.377 40.3171H239.051C239.578 40.3171 240.004 40.7476 240.004 41.2806V42.0323C240.004 42.5653 239.578 42.9958 239.051 42.9958H226.377C225.85 42.9958 225.424 42.5653 225.424 42.0323V41.2806Z" fill="#FFEF41"/>
<path d="M239.044 40.3174H226.377C225.851 40.3174 225.424 40.7488 225.424 41.2809V42.0257C225.424 42.5579 225.851 42.9892 226.377 42.9892H239.044C239.57 42.9892 239.997 42.5579 239.997 42.0257V41.2809C239.997 40.7488 239.57 40.3174 239.044 40.3174Z" fill="#00031D"/>
<path d="M93.8872 16.4003C95.0071 16.4003 95.915 15.4825 95.915 14.3503C95.915 13.2181 95.0071 12.3003 93.8872 12.3003C92.7673 12.3003 91.8594 13.2181 91.8594 14.3503C91.8594 15.4825 92.7673 16.4003 93.8872 16.4003Z" fill="white"/>
<path d="M93.8872 17.4255C95.5635 17.4255 96.9289 16.0451 96.9289 14.3504C96.9289 12.6557 95.5635 11.2754 93.8872 11.2754C92.2108 11.2754 90.8455 12.6557 90.8455 14.3504C90.8455 16.0451 92.2108 17.4255 93.8872 17.4255ZM93.8872 12.3004C95.0092 12.3004 95.915 13.2161 95.915 14.3504C95.915 15.4848 95.0092 16.4004 93.8872 16.4004C92.7651 16.4004 91.8594 15.4848 91.8594 14.3504C91.8594 13.2161 92.7651 12.3004 93.8872 12.3004Z" fill="#00031D"/>
<path d="M178.379 34.1671L181.083 25.2837L181.759 28.7004L178.379 34.1671Z" fill="#00031D"/>
</g>
<defs>
<clipPath id="clip0_62_27">
<rect width="248" height="50" fill="white"/>
</clipPath>
</defs>
</svg>
