<svg width="206" height="37" viewBox="0 0 206 37" fill="none" xmlns="http://www.w3.org/2000/svg">
<g clip-path="url(#clip0_49_472)">
<path d="M89.2417 7.52903H91.8624V12.1654H95.7388V0.541016H91.8624V4.81282H89.2417V0.541016H85.5049V12.1107H89.2417V7.52903Z" fill="white" fill-opacity="0.6"/>
<path d="M81.5742 8.81084C83.0301 7.18233 83.8188 5.14669 83.9462 2.71608C83.9644 2.05981 83.8248 1.59192 83.5215 1.31848C83.2182 1.04503 82.6965 0.905273 81.9503 0.905273H73.409V3.59718H79.081C79.6087 3.59718 79.8514 3.82808 79.815 4.29598C79.7058 5.53559 79.0992 6.70836 77.989 7.81429C76.8425 8.96883 75.2531 9.95931 73.2148 10.7918L74.7678 13.0948C77.8434 11.8673 80.1062 10.4394 81.5621 8.81084H81.5742Z" fill="white" fill-opacity="0.6"/>
<path d="M95.5199 20.3685L95.8475 14.6748C95.9021 13.7269 95.3986 13.2529 94.3491 13.2529H77.7881V15.9448H91.0248C91.3524 15.9448 91.5162 16.0907 91.5162 16.3823V17.7799H77.7942V22.8782C77.7942 23.6863 77.9822 24.2515 78.3523 24.5614C78.7223 24.8713 79.3653 25.0292 80.2753 25.0292H96.3753V22.3373H82.6533C82.3075 22.3373 82.1376 22.1915 82.1376 21.8998V20.3746H95.5321L95.5199 20.3685Z" fill="white" fill-opacity="0.6"/>
<path d="M108.321 16.4308C107.283 16.4308 106.428 16.3883 105.742 16.3032C105.063 16.2181 104.717 15.9508 104.717 15.5011V10.8951H112.385L112.955 2.63709C113.046 1.48254 112.476 0.905273 111.238 0.905273H100.38V3.62148H107.829C108.302 3.62148 108.539 3.84631 108.539 4.29598V8.20319H100.325V16.1756C100.325 17.9499 101.174 18.9526 102.861 19.1774C103.662 19.2989 104.705 19.3597 105.997 19.3597C109.692 19.3597 112.761 19.0802 115.218 18.5333L114.836 15.9204C113.016 16.2667 110.844 16.4369 108.315 16.4369L108.321 16.4308Z" fill="white" fill-opacity="0.6"/>
<path d="M118.087 24.7375H122.455V0.546875H118.087V8.2033H113.75V10.9195H118.087V24.7375Z" fill="white" fill-opacity="0.6"/>
<path d="M145.209 17.0264V24.7375H149.601V0.546875H145.209V13.2772C145.209 14.1218 144.882 14.7599 144.226 15.1913C143.753 15.5012 142.965 15.7686 141.854 15.9813C140.744 16.1939 139.015 16.3033 136.668 16.3033C135.448 16.3033 134.49 16.2547 133.786 16.1636C133.089 16.0663 132.737 15.799 132.737 15.3493V10.8223H141.278L141.909 2.64328C142 1.48874 141.43 0.911467 140.192 0.911467H128.593V3.62768H136.777C137.232 3.62768 137.456 3.87074 137.456 4.35078V8.13039H128.345V15.9448C128.345 17.7921 129.152 18.819 130.771 19.0256C131.608 19.1289 132.688 19.1775 134.017 19.1775C137.402 19.1775 139.919 18.9831 141.575 18.582C143.395 18.1324 144.602 17.6159 145.203 17.0325L145.209 17.0264Z" fill="white" fill-opacity="0.6"/>
<path d="M174.759 23.8077C176.106 22.7565 176.779 21.4014 176.779 19.7425C176.779 18.0836 176.106 16.7347 174.759 15.6773C173.358 14.5593 171.477 13.9941 169.111 13.9941C166.745 13.9941 164.865 14.5532 163.463 15.6773C162.117 16.7286 161.443 18.0836 161.443 19.7425C161.443 21.4014 162.117 22.7504 163.463 23.8077C164.865 24.9137 166.745 25.4666 169.111 25.4666C171.477 25.4666 173.358 24.9137 174.759 23.8077ZM165.702 19.7486C165.702 18.9222 166.017 18.2416 166.642 17.7069C167.273 17.1722 168.092 16.9048 169.111 16.9048C170.13 16.9048 170.949 17.1722 171.568 17.7069C172.187 18.2416 172.496 18.9222 172.496 19.7486C172.496 20.575 172.187 21.2374 171.568 21.7782C170.949 22.319 170.13 22.5924 169.111 22.5924C168.092 22.5924 167.267 22.319 166.642 21.7782C166.011 21.2313 165.702 20.5568 165.702 19.7486Z" fill="white" fill-opacity="0.6"/>
<path d="M167.939 9.21223H172.495V13.8486H176.887V0.541016H172.495V6.62362H167.939V9.21223Z" fill="white" fill-opacity="0.6"/>
<path d="M162.02 9.26671C162.566 10.2329 163.409 11.1018 164.543 11.8675C165.684 12.6331 166.933 13.1922 168.292 13.5385L169.766 11.1322C166.254 10.008 164.379 8.12432 164.143 5.4628H169.245V2.7952H164.064V0H159.672V2.7952H154.516V5.4628H159.617C159.381 8.37954 157.47 10.4759 153.885 11.752L155.523 14.2616C156.96 13.8484 158.295 13.18 159.533 12.2564C160.77 11.3327 161.595 10.3362 162.014 9.26671H162.02Z" fill="white" fill-opacity="0.6"/>
<path d="M182.729 9.26675L183.797 11.983C185.963 11.6731 187.947 11.0776 189.742 10.1965C191.617 9.29713 192.909 8.28843 193.619 7.17034C194.383 8.27627 195.748 9.30321 197.713 10.2511C199.624 11.1626 201.523 11.746 203.416 11.983L204.398 9.29105C202.069 8.85962 200.152 8.13651 198.641 7.11566C197.076 6.06442 196.185 4.83696 195.966 3.43935H203.064V0.723145H183.991V3.43935H191.089C190.67 6.38647 187.886 8.33096 182.742 9.26067L182.729 9.26675Z" fill="white" fill-opacity="0.6"/>
<path d="M181.062 14.207V16.8989H191.326V24.7377H195.718V16.8989H206V14.207H181.062Z" fill="white" fill-opacity="0.6"/>
<path d="M53.1405 5.64525C53.1405 5.7607 53.1162 16.2913 53.1162 17.221V22.38C53.1162 25.1388 51.4601 28.098 50.4653 29.0946C49.0821 30.474 46.9953 31.6467 44.2412 31.7075V36.8482C44.2412 36.8482 50.2469 36.8118 54.2446 32.8013C56.9501 30.0243 58.0906 25.5155 58.0906 22.7385V0.583496H53.092C53.092 1.13038 53.1405 5.63309 53.1405 5.64525Z" fill="white" fill-opacity="0.6"/>
<path d="M5.14424 6.0763C1.71677 9.60677 0 13.8117 0 18.6912C0 23.5706 1.74103 27.8728 5.21703 31.4033C10.7374 37.2125 19.485 36.8479 19.8126 36.8479V11.2535H14.8807L14.8928 16.5705L14.9049 31.221C14.9049 31.221 11.7808 30.7045 8.32299 27.2409C7.22498 26.141 5.08964 22.7564 5.08964 18.3023C5.08964 14.4801 6.87314 11.4905 8.74156 9.61892C13.3944 5.18913 19.8369 5.6631 19.8551 5.6631V0.58312C19.8551 0.58312 10.4947 0.26714 5.14424 6.0763Z" fill="white" fill-opacity="0.6"/>
<path d="M27.5104 6.07631C24.083 9.60678 22.3662 13.8117 22.3662 18.6912C22.3662 23.5706 24.1072 27.8728 27.5832 31.4033C33.1036 37.2125 41.8512 36.8479 42.1788 36.8479V31.78C42.1788 31.78 34.7597 31.616 30.6892 27.2469C29.5912 26.1471 27.4559 22.7625 27.4559 18.3084C27.4559 14.4862 29.2393 11.4966 31.1078 9.625C35.7606 5.19521 42.2031 5.66918 42.2213 5.66918V0.583126C42.2213 0.583126 32.8609 0.267146 27.5104 6.07023V6.07631Z" fill="white" fill-opacity="0.6"/>
<path d="M79.7665 34.4296H81.2406C81.2406 34.9826 81.0161 35.3776 80.5793 35.6085C80.3064 35.7543 80.003 35.8272 79.6694 35.8272C79.1416 35.8272 78.7231 35.6753 78.4076 35.3776C78.0194 35.0069 77.8252 34.4235 77.8252 33.6275C77.8252 32.8315 78.0072 32.2603 78.3712 31.8471C78.6988 31.4886 79.1174 31.3063 79.6391 31.3063C79.8575 31.3063 80.0698 31.3488 80.27 31.4339C80.4277 31.5129 80.5793 31.6162 80.7128 31.7438C80.8159 31.8532 80.9009 31.9747 80.9676 32.1023C81.0283 32.2117 81.0586 32.3028 81.0586 32.3758H82.3871C82.3386 31.8289 82.1081 31.3488 81.6895 30.9356C81.1617 30.4313 80.458 30.1821 79.5723 30.1821C78.5593 30.1821 77.7767 30.5346 77.2186 31.2394C76.7272 31.8593 76.4785 32.6492 76.4785 33.6154C76.4785 34.6848 76.7697 35.5295 77.3521 36.1493C77.8859 36.7205 78.5653 37.0061 79.3843 37.0061C79.9303 37.0061 80.3852 36.8906 80.7553 36.6597C81.0828 36.4531 81.2466 36.2404 81.2466 36.0095V36.8238H82.4356V33.3602H79.7725V34.4418L79.7665 34.4296Z" fill="white" fill-opacity="0.6"/>
<path d="M87.6458 30.3281L85.3467 36.8422H86.7419L87.1908 35.4993H89.587L90.0117 36.8422H91.4373L89.1745 30.3281H87.6458ZM87.5548 34.369L88.3738 31.7926H88.398L89.2049 34.369H87.5548Z" fill="white" fill-opacity="0.6"/>
<path d="M95.8842 30.3281H94.5557V36.8422H99.0205V35.6572H95.8842V30.3281Z" fill="white" fill-opacity="0.6"/>
<path d="M103.577 30.3281H102.248V36.8422H106.713V35.6572H103.577V30.3281Z" fill="white" fill-opacity="0.6"/>
<path d="M111.256 33.9984H114.326V32.862H111.256V31.4827H114.605V30.3281H109.952V36.8422H114.745V35.6937H111.256V33.9984Z" fill="white" fill-opacity="0.6"/>
<path d="M123.074 36.3437C123.049 36.2161 123.043 35.9001 123.043 35.3897C123.043 34.8245 122.97 34.4235 122.825 34.1865C122.728 34.0103 122.528 33.8584 122.236 33.7308C122.54 33.6275 122.782 33.4269 122.958 33.1413C123.128 32.8618 123.213 32.5458 123.213 32.1752C123.213 31.7498 123.092 31.367 122.849 31.0389C122.503 30.571 121.963 30.334 121.242 30.334H118.026V36.848H119.331V34.2959H120.708C121.163 34.2959 121.448 34.3931 121.581 34.5754C121.678 34.7212 121.733 35.0372 121.733 35.5294C121.733 35.8454 121.745 36.1067 121.763 36.3194C121.781 36.5017 121.812 36.6779 121.86 36.842H123.334V36.6779C123.195 36.6293 123.11 36.5199 123.08 36.3437H123.074ZM121.636 33.0016C121.472 33.1413 121.223 33.2082 120.871 33.2082H119.318V31.446H120.975C121.308 31.446 121.557 31.5432 121.715 31.7377C121.824 31.8835 121.878 32.0719 121.878 32.3028C121.878 32.6248 121.794 32.8557 121.63 33.0016H121.636Z" fill="white" fill-opacity="0.6"/>
<path d="M129.249 33.178L127.878 30.3281H126.319L128.57 34.3812V36.8422H129.898V34.4055L131.985 30.3281H130.493L129.249 33.178Z" fill="white" fill-opacity="0.6"/>
<path d="M142.74 31.3673C143.207 31.3673 143.553 31.507 143.796 31.7805C143.929 31.9385 144.039 32.1694 144.117 32.4854H145.452C145.403 31.902 145.173 31.3977 144.767 30.9662C144.257 30.4376 143.578 30.1763 142.716 30.1763C141.855 30.1763 141.175 30.4619 140.654 31.0391C140.095 31.6468 139.816 32.4914 139.816 33.5731C139.816 34.6547 140.089 35.5115 140.629 36.1252C141.145 36.7085 141.836 37.0002 142.71 37.0002C143.468 37.0002 144.087 36.7754 144.566 36.3196C145.009 35.9064 145.306 35.3292 145.452 34.5818H144.117C144.033 34.9828 143.875 35.2866 143.638 35.4932C143.408 35.7059 143.104 35.8092 142.74 35.8092C142.207 35.8092 141.8 35.5844 141.521 35.1347C141.278 34.7397 141.157 34.2293 141.157 33.5974C141.157 32.7831 141.339 32.1815 141.703 31.7926C141.982 31.507 142.328 31.3612 142.74 31.3612V31.3673Z" fill="white" fill-opacity="0.6"/>
<path d="M152.622 32.8013H150.111V30.3281H148.782V36.8422H150.111V33.9254H152.622V36.8422H153.939V30.3281H152.622V32.8013Z" fill="white" fill-opacity="0.6"/>
<path d="M158.846 33.9984H161.916V32.862H158.846V31.4827H162.201V30.3281H157.548V36.8422H162.34V35.6937H158.846V33.9984Z" fill="white" fill-opacity="0.6"/>
<path d="M170.166 30.7228C169.644 30.3461 169.038 30.1577 168.352 30.1577C167.667 30.1577 167.048 30.3461 166.526 30.7228C165.731 31.3062 165.331 32.2602 165.331 33.5788C165.331 34.8974 165.731 35.8393 166.526 36.4226C167.054 36.8054 167.661 36.9938 168.352 36.9938C169.044 36.9938 169.644 36.8054 170.166 36.4226C170.967 35.8393 171.367 34.8913 171.367 33.5788C171.367 32.2663 170.967 31.3001 170.166 30.7228ZM169.462 35.3775C169.165 35.6752 168.795 35.8271 168.352 35.8271C167.909 35.8271 167.533 35.6752 167.23 35.3775C166.842 34.9886 166.647 34.3931 166.647 33.5849C166.647 32.7767 166.842 32.169 167.23 31.7741C167.527 31.4763 167.903 31.3244 168.352 31.3244C168.801 31.3244 169.165 31.4763 169.462 31.7741C169.857 32.169 170.051 32.7706 170.051 33.5849C170.051 34.3991 169.857 34.9886 169.462 35.3775Z" fill="white" fill-opacity="0.6"/>
<path d="M178.617 34.8734H178.611L176.105 30.3281H174.704V36.8422H175.942V32.2058H175.966L178.538 36.8422H179.848V30.3281H178.617V34.8734Z" fill="white" fill-opacity="0.6"/>
<path d="M186.533 34.4296H188.007C188.007 34.9826 187.789 35.3776 187.346 35.6085C187.073 35.7543 186.77 35.8272 186.436 35.8272C185.908 35.8272 185.49 35.6753 185.174 35.3776C184.786 35.0069 184.592 34.4235 184.592 33.6275C184.592 32.8315 184.774 32.2603 185.138 31.8471C185.466 31.4886 185.89 31.3063 186.406 31.3063C186.63 31.3063 186.837 31.3488 187.037 31.4339C187.201 31.5129 187.346 31.6162 187.474 31.7438C187.577 31.8532 187.662 31.9747 187.728 32.1023C187.789 32.2117 187.819 32.3028 187.819 32.3758H189.148C189.099 31.8289 188.869 31.3488 188.45 30.9356C187.922 30.4313 187.219 30.1821 186.333 30.1821C185.32 30.1821 184.537 30.5346 183.979 31.2394C183.488 31.8593 183.239 32.6492 183.239 33.6154C183.239 34.6848 183.53 35.5295 184.113 36.1493C184.647 36.7205 185.326 37.0061 186.145 37.0061C186.691 37.0061 187.146 36.8906 187.516 36.6597C187.844 36.4531 188.007 36.2404 188.007 36.0095V36.8238H189.196V33.3602H186.533V34.4418V34.4296Z" fill="white" fill-opacity="0.6"/>
<path d="M194.656 34.9341C194.656 35.2379 194.619 35.4627 194.54 35.5964C194.437 35.797 194.231 35.8942 193.934 35.8942C193.606 35.8942 193.388 35.7666 193.279 35.5114C193.194 35.3047 193.151 34.928 193.151 34.3629H191.926C191.926 34.7761 191.932 35.0921 191.95 35.2926C191.986 35.6329 192.065 35.9124 192.181 36.1312C192.326 36.4046 192.532 36.6112 192.811 36.7449C193.121 36.909 193.527 36.9879 194.031 36.9879C194.662 36.9879 195.141 36.8178 195.469 36.4836C195.802 36.1372 195.972 35.6147 195.972 34.928V30.3159H194.656V34.928V34.9341Z" fill="white" fill-opacity="0.6"/>
<path d="M203.367 34.5875C203.367 35.0007 203.27 35.3045 203.07 35.499C202.864 35.7177 202.542 35.821 202.099 35.821C201.754 35.821 201.475 35.7177 201.28 35.5051C201.062 35.2802 200.947 34.9582 200.947 34.5267V30.3218H199.588V34.624C199.588 34.9521 199.63 35.2438 199.709 35.499C199.794 35.7663 199.922 35.9973 200.091 36.1978C200.34 36.4834 200.674 36.6961 201.086 36.8297C201.408 36.9391 201.754 36.9938 202.124 36.9938C202.943 36.9938 203.573 36.7994 204.016 36.4044C204.489 35.9912 204.72 35.3653 204.72 34.5328V30.3218H203.367V34.5814V34.5875Z" fill="white" fill-opacity="0.6"/>
</g>
<defs>
<clipPath id="clip0_49_472">
<rect width="206" height="37" fill="white"/>
</clipPath>
</defs>
</svg>
