<svg width="190" height="34" viewBox="0 0 190 34" fill="none" xmlns="http://www.w3.org/2000/svg">
<g clip-path="url(#clip0_71_1282)">
<path d="M88.1012 18.7171L88.4033 13.4851C88.4537 12.614 87.9893 12.1785 87.0213 12.1785H71.7466V14.6521H83.9552C84.2573 14.6521 84.4084 14.7861 84.4084 15.0541V16.3384H71.7522V21.0233C71.7522 21.7659 71.9256 22.2852 72.2669 22.57C72.6082 22.8548 73.2013 22.9999 74.0406 22.9999H88.8901V20.5263H76.2339C75.915 20.5263 75.7583 20.3923 75.7583 20.1243V18.7227H88.1124L88.1012 18.7171Z" fill="white"/>
<path d="M75.2377 8.09661C76.5806 6.60014 77.3079 4.73514 77.4254 2.49602C77.4422 1.89296 77.3135 1.46301 77.0338 1.21173C76.754 0.96046 76.2728 0.832031 75.5846 0.832031H67.7067V3.30567H72.9437C73.4305 3.30567 73.6543 3.51786 73.6207 3.94781C73.52 5.08692 72.9549 6.1646 71.9366 7.18086C70.8791 8.24179 69.4132 9.15195 67.5332 9.91694L68.9656 12.0332C71.8023 10.9053 73.8893 9.59308 75.2321 8.09661H75.2377Z" fill="white"/>
<path d="M82.3104 6.91849H84.7275V11.179H88.3028V0.49707H84.7275V4.42251H82.3104V0.49707H78.8638V11.1287H82.3104V6.91849Z" fill="white"/>
<path d="M99.9069 15.0987C98.9501 15.0987 98.1556 15.0597 97.529 14.9815C96.9023 14.9033 96.5834 14.6576 96.5834 14.2444V10.0119H103.656L104.187 2.42343C104.271 1.3625 103.74 0.832031 102.604 0.832031H92.5884V3.32801H99.4593C99.8957 3.32801 100.114 3.53461 100.114 3.94781V7.53822H92.5381V14.8642C92.5381 16.4947 93.3158 17.416 94.8769 17.6226C95.6154 17.7343 96.5778 17.7902 97.7696 17.7902C101.177 17.7902 104.014 17.5389 106.274 17.0308L105.922 14.6297C104.243 14.948 102.24 15.1043 99.9069 15.1043V15.0987Z" fill="white"/>
<path d="M108.915 22.7317H112.938V0.502441H108.915V7.53808H104.915V10.0341H108.915V22.7317Z" fill="white"/>
<path d="M133.931 15.6458V22.7317H137.982V0.502441H133.931V12.2006C133.931 12.9767 133.629 13.563 133.025 13.9595C132.588 14.2443 131.861 14.4844 130.837 14.6854C129.813 14.8808 128.218 14.9813 126.059 14.9813C124.934 14.9813 124.05 14.9367 123.401 14.8529C122.757 14.7636 122.433 14.5179 122.433 14.1047V9.94471H130.311L130.887 2.42887C130.971 1.36794 130.445 0.837472 129.304 0.837472H118.606V3.33345H126.154C126.573 3.33345 126.78 3.5568 126.78 3.99793V7.47107H118.376V14.6519C118.376 16.3494 119.121 17.293 120.615 17.4829C121.387 17.5778 122.383 17.6225 123.608 17.6225C126.73 17.6225 129.052 17.4438 130.579 17.0753C132.258 16.6621 133.371 16.1874 133.925 15.6514L133.931 15.6458Z" fill="white"/>
<path d="M161.185 21.8775C162.427 20.9115 163.048 19.6663 163.048 18.1419C163.048 16.6175 162.427 15.3779 161.185 14.4063C159.893 13.3789 158.158 12.8596 155.976 12.8596C153.794 12.8596 152.059 13.3733 150.767 14.4063C149.525 15.3723 148.904 16.6175 148.904 18.1419C148.904 19.6663 149.525 20.9059 150.767 21.8775C152.059 22.8938 153.794 23.4019 155.976 23.4019C158.158 23.4019 159.893 22.8938 161.185 21.8775ZM152.832 18.1475C152.832 17.3881 153.123 16.7627 153.699 16.2713C154.281 15.78 155.036 15.5343 155.976 15.5343C156.916 15.5343 157.671 15.78 158.242 16.2713C158.813 16.7627 159.098 17.3881 159.098 18.1475C159.098 18.9069 158.813 19.5156 158.242 20.0125C157.671 20.5095 156.916 20.7608 155.976 20.7608C155.036 20.7608 154.275 20.5095 153.699 20.0125C153.117 19.51 152.832 18.8902 152.832 18.1475Z" fill="white"/>
<path d="M154.896 8.46521H159.098V12.7257H163.149V0.49707H159.098V6.08649H154.896V8.46521Z" fill="white"/>
<path d="M149.435 8.51536C149.939 9.40319 150.717 10.2017 151.763 10.9052C152.815 11.6088 153.967 12.1225 155.226 12.4408L156.586 10.2296C153.346 9.20217 151.617 7.46559 151.399 5.01987H156.105V2.56857H151.321V0H147.27V2.56857H142.514V5.01987H147.22C147.001 7.70012 145.239 9.62654 141.932 10.7991L143.443 13.1053C144.769 12.7256 146 12.1113 147.141 11.2626C148.283 10.4139 149.044 9.49811 149.43 8.51536H149.435Z" fill="white"/>
<path d="M166.999 13.0549V15.5286H176.46V22.7317H180.516V15.5286H190V13.0549H166.999Z" fill="white"/>
<path d="M168.537 8.51543L169.516 11.0114C171.514 10.7266 173.343 10.1794 174.999 9.36976C176.728 8.54335 177.92 7.61643 178.575 6.589C179.28 7.60526 180.539 8.54893 182.352 9.42001C184.114 10.2576 185.865 10.7936 187.611 11.0114L188.517 8.53776C186.369 8.14131 184.601 7.47684 183.208 6.53875C181.764 5.57275 180.942 4.44481 180.74 3.16053H187.286V0.664551H169.695V3.16053H176.242C175.856 5.86869 173.287 7.65552 168.543 8.50984L168.537 8.51543Z" fill="white"/>
<path d="M49.0133 5.18747C49.0133 5.28798 48.9909 14.9704 48.9909 15.8247V20.5654C48.9909 23.1004 47.4634 25.8198 46.5458 26.7355C45.2701 28.003 43.3454 29.0807 40.8052 29.1366V33.8605C40.8052 33.8605 46.3444 33.827 50.0316 30.1417C52.527 27.5898 53.5789 23.4466 53.5789 20.8948V0.536133H48.9685C48.9685 1.03868 49.0133 5.1763 49.0133 5.18747Z" fill="#1C95D4"/>
<path d="M4.74468 5.57821C1.58343 8.828 0 12.692 0 17.1758C0 21.6597 1.60581 25.613 4.81183 28.8572C9.90341 34.201 17.9716 33.8604 18.2738 33.8604V10.3412H13.7249L13.7361 15.2271L13.7473 28.6897C13.7473 28.6897 10.8658 28.2151 7.67654 25.0323C6.66382 24.0216 4.69433 20.9114 4.69433 16.8185C4.69433 13.3062 6.3393 10.559 8.06261 8.83917C12.3541 4.76855 18.2961 5.20409 18.3129 5.20409V0.536003C18.3129 0.536003 9.6796 0.245644 4.74468 5.57821Z" fill="#1C95D4"/>
<path d="M25.3741 5.57821C22.2128 8.82242 20.6294 12.6864 20.6294 17.1758C20.6294 21.6653 22.2352 25.613 25.4412 28.8572C30.5328 34.201 38.6066 33.8604 38.9031 33.8604V29.2034C38.9031 29.2034 32.0603 29.0527 28.3115 25.0379C27.2988 24.0272 25.3293 20.917 25.3293 16.8241C25.3293 13.3118 26.9743 10.5646 28.6976 8.84476C32.9891 4.77414 38.9311 5.20968 38.9479 5.20968V0.536003C38.9479 0.536003 30.3146 0.245644 25.3797 5.57821H25.3741Z" fill="#1C95D4"/>
<path d="M73.5707 31.638H74.9303C74.9303 32.1461 74.7233 32.509 74.3204 32.7212C74.0686 32.8552 73.7889 32.9223 73.4811 32.9223C72.9944 32.9223 72.6083 32.7827 72.3173 32.509C71.9593 32.1684 71.7802 31.6324 71.7802 30.9009C71.7802 30.1694 71.9481 29.6445 72.2838 29.2648C72.5859 28.9354 72.972 28.7679 73.4532 28.7679C73.6546 28.7679 73.8504 28.807 74.0351 28.8851C74.1805 28.9577 74.3204 29.0527 74.4435 29.1699C74.5386 29.2704 74.6169 29.3821 74.6785 29.4994C74.7344 29.5999 74.7624 29.6836 74.7624 29.7506H75.9878C75.943 29.2481 75.7304 28.807 75.3443 28.4273C74.8575 27.9638 74.2085 27.7349 73.3916 27.7349C72.4572 27.7349 71.7354 28.0587 71.2207 28.7065C70.7675 29.276 70.5381 30.0019 70.5381 30.8897C70.5381 31.8725 70.8067 32.6486 71.3438 33.2182C71.8362 33.7431 72.4628 34.0055 73.2182 34.0055C73.7217 34.0055 74.1414 33.8994 74.4827 33.6872C74.7848 33.4974 74.9359 33.302 74.9359 33.0898V33.838H76.0325V30.6552H73.5763V31.6491L73.5707 31.638Z" fill="white"/>
<path d="M80.8388 27.8689L78.7183 33.8548H80.0051L80.4192 32.6207H82.6293L83.0209 33.8548H84.3358L82.2488 27.8689H80.8388ZM80.7549 31.5877L81.5102 29.2202H81.5326L82.2768 31.5877H80.7549Z" fill="white"/>
<path d="M88.4368 27.8689H87.2114V33.8548H91.3295V32.7659H88.4368V27.8689Z" fill="white"/>
<path d="M95.5315 27.8689H94.3062V33.8548H98.4242V32.7659H95.5315V27.8689Z" fill="white"/>
<path d="M102.615 31.2415H105.446V30.1974H102.615V28.9298H105.704V27.8689H101.412V33.8548H105.838V32.7994H102.615V31.2415Z" fill="white"/>
<path d="M113.515 33.3969C113.492 33.2797 113.487 32.9893 113.487 32.5203C113.487 32.001 113.419 31.6324 113.285 31.4147C113.196 31.2527 113.011 31.1131 112.742 30.9959C113.022 30.901 113.246 30.7167 113.408 30.4542C113.565 30.1974 113.643 29.907 113.643 29.5664C113.643 29.1755 113.531 28.8238 113.308 28.5222C112.989 28.0923 112.491 27.8745 111.825 27.8745H108.859V33.8604H110.062V31.5152H111.332C111.752 31.5152 112.015 31.6045 112.138 31.772C112.228 31.906 112.278 32.1964 112.278 32.6487C112.278 32.9391 112.289 33.1792 112.306 33.3746C112.323 33.5421 112.351 33.704 112.396 33.8548H113.755V33.704C113.626 33.6594 113.548 33.5589 113.52 33.3969H113.515ZM112.188 30.3258C112.037 30.4542 111.808 30.5157 111.484 30.5157H110.051V28.8964H111.579C111.886 28.8964 112.116 28.9857 112.261 29.1644C112.362 29.2984 112.412 29.4715 112.412 29.6837C112.412 29.9796 112.334 30.1918 112.183 30.3258H112.188Z" fill="white"/>
<path d="M119.21 30.4877L117.946 27.8689H116.508L118.584 31.5933V33.8548H119.809V31.6157L121.734 27.8689H120.357L119.21 30.4877Z" fill="white"/>
<path d="M131.654 28.8237C132.085 28.8237 132.409 28.9521 132.627 29.2034C132.751 29.343 132.851 29.5607 132.924 29.8511H134.155C134.11 29.3151 133.898 28.8516 133.523 28.4551C133.053 27.9694 132.426 27.7292 131.632 27.7292C130.837 27.7292 130.21 27.9917 129.729 28.5222C129.214 29.0805 128.957 29.8567 128.957 30.8506C128.957 31.8445 129.209 32.6319 129.707 33.1958C130.182 33.7319 130.82 33.9999 131.626 33.9999C132.325 33.9999 132.896 33.7933 133.338 33.3745C133.746 32.9948 134.021 32.4588 134.155 31.7775H132.924C132.846 32.1461 132.7 32.4253 132.482 32.6151C132.269 32.8105 131.99 32.9055 131.654 32.9055C131.162 32.9055 130.787 32.6989 130.529 32.2857C130.305 31.9227 130.194 31.4537 130.194 30.873C130.194 30.1247 130.361 29.5719 130.697 29.2145C130.954 28.9521 131.273 28.8181 131.654 28.8181V28.8237Z" fill="white"/>
<path d="M140.768 30.1415H138.452V27.8689H137.227V33.8548H138.452V31.1745H140.768V33.8548H141.988V27.8689H140.768V30.1415Z" fill="white"/>
<path d="M146.509 31.2415H149.34V30.1974H146.509V28.9298H149.603V27.8689H145.312V33.8548H149.732V32.7994H146.509V31.2415Z" fill="white"/>
<path d="M156.955 28.2319C156.474 27.8857 155.914 27.7126 155.282 27.7126C154.65 27.7126 154.079 27.8857 153.598 28.2319C152.865 28.768 152.496 29.6391 152.496 30.8563C152.496 32.0736 152.865 32.9335 153.598 33.4696C154.085 33.8214 154.644 33.9945 155.282 33.9945C155.92 33.9945 156.474 33.8214 156.955 33.4696C157.693 32.9335 158.063 32.0625 158.063 30.8563C158.063 29.6502 157.693 28.7624 156.955 28.2319ZM156.3 32.5092C156.026 32.7828 155.685 32.9224 155.276 32.9224C154.868 32.9224 154.521 32.7828 154.241 32.5092C153.883 32.1518 153.704 31.6046 153.704 30.8619C153.704 30.1193 153.883 29.5609 154.241 29.1979C154.515 28.9243 154.862 28.7847 155.276 28.7847C155.69 28.7847 156.026 28.9243 156.3 29.1979C156.664 29.5609 156.843 30.1137 156.843 30.8619C156.843 31.6102 156.664 32.1518 156.3 32.5092Z" fill="white"/>
<path d="M164.744 32.0456H164.738L162.427 27.8689H161.135V33.8548H162.276V29.5943H162.299L164.671 33.8548H165.879V27.8689H164.744V32.0456Z" fill="white"/>
<path d="M172.051 31.638H173.41C173.41 32.1461 173.209 32.509 172.801 32.7212C172.549 32.8552 172.269 32.9223 171.961 32.9223C171.475 32.9223 171.088 32.7827 170.798 32.509C170.439 32.1684 170.26 31.6324 170.26 30.9009C170.26 30.1694 170.428 29.6445 170.764 29.2648C171.066 28.9354 171.458 28.7679 171.933 28.7679C172.14 28.7679 172.331 28.807 172.515 28.8851C172.666 28.9577 172.801 29.0527 172.918 29.1699C173.013 29.2704 173.092 29.3821 173.153 29.4994C173.209 29.5999 173.237 29.6836 173.237 29.7506H174.462C174.418 29.2481 174.205 28.807 173.819 28.4273C173.332 27.9638 172.683 27.7349 171.866 27.7349C170.932 27.7349 170.21 28.0587 169.695 28.7065C169.242 29.276 169.013 30.0019 169.013 30.8897C169.013 31.8725 169.281 32.6486 169.818 33.2182C170.311 33.7431 170.937 34.0055 171.693 34.0055C172.196 34.0055 172.616 33.8994 172.957 33.6872C173.259 33.4974 173.41 33.302 173.41 33.0898V33.838H174.507V30.6552H172.051V31.6491V31.638Z" fill="white"/>
<path d="M179.537 32.107C179.537 32.3862 179.503 32.5928 179.431 32.7156C179.335 32.8999 179.145 32.9892 178.871 32.9892C178.569 32.9892 178.367 32.872 178.267 32.6375C178.188 32.4476 178.149 32.0958 178.149 31.5821H177.019C177.019 31.9618 177.025 32.2522 177.041 32.4364C177.075 32.7491 177.148 33.006 177.254 33.207C177.388 33.4583 177.579 33.6481 177.836 33.771C178.121 33.9162 178.496 33.9943 178.961 33.9943C179.542 33.9943 179.984 33.838 180.287 33.5309C180.594 33.2126 180.751 32.7324 180.751 32.1014V27.8633H179.537V32.1014V32.107Z" fill="white"/>
<path d="M187.572 31.7831C187.572 32.1573 187.482 32.442 187.298 32.6207C187.107 32.8217 186.811 32.9167 186.402 32.9167C186.078 32.9167 185.826 32.8217 185.647 32.6263C185.446 32.4197 185.339 32.1238 185.339 31.7273V27.8633H184.086V31.8166C184.086 32.1182 184.125 32.3862 184.203 32.6207C184.282 32.8664 184.399 33.0786 184.556 33.2629C184.785 33.5253 185.093 33.7207 185.474 33.8436C185.77 33.9441 186.089 33.9943 186.43 33.9943C187.186 33.9943 187.768 33.8157 188.176 33.4527C188.612 33.073 188.825 32.4979 188.825 31.7329V27.8633H187.577V31.7776L187.572 31.7831Z" fill="white"/>
</g>
<defs>
<clipPath id="clip0_71_1282">
<rect width="190" height="34" fill="white"/>
</clipPath>
</defs>
</svg>
