<svg width="180" height="33" viewBox="0 0 180 33" fill="none" xmlns="http://www.w3.org/2000/svg">
<g clip-path="url(#clip0_76_1794)">
<path d="M83.4646 17.7679L83.7508 12.8011C83.7985 11.9742 83.3585 11.5608 82.4415 11.5608H67.9707V13.909H79.5368C79.823 13.909 79.9661 14.0362 79.9661 14.2906V15.5098H67.976V19.957C67.976 20.662 68.1403 21.155 68.4637 21.4253C68.787 21.6957 69.3489 21.8335 70.144 21.8335H84.2119V19.4853H72.2218C71.9197 19.4853 71.7713 19.3581 71.7713 19.1036V17.7732H83.4751L83.4646 17.7679Z" fill="black"/>
<path d="M71.2785 7.68596C72.5507 6.26538 73.2398 4.49496 73.3511 2.36939C73.367 1.79692 73.2451 1.38877 72.98 1.15024C72.715 0.91171 72.2591 0.789795 71.6071 0.789795H64.1438V3.13799H69.1052C69.5664 3.13799 69.7784 3.33942 69.7466 3.74757C69.6512 4.8289 69.1158 5.85193 68.1511 6.81665C67.1493 7.82378 65.7605 8.68779 63.9795 9.41398L65.3365 11.4229C68.0239 10.3522 70.0011 9.10654 71.2732 7.68596H71.2785Z" fill="black"/>
<path d="M77.9781 6.56745H80.268V10.6119H83.6551V0.47168H80.268V4.19805H77.9781V0.47168H74.7129V10.5641H77.9781V6.56745Z" fill="black"/>
<path d="M94.6489 14.333C93.7425 14.333 92.9898 14.2959 92.3962 14.2217C91.8025 14.1475 91.5003 13.9142 91.5003 13.522V9.50409H98.2004L98.704 2.30048C98.7835 1.29336 98.2799 0.789795 97.2039 0.789795H87.7157V3.15919H94.2249C94.6383 3.15919 94.8451 3.35532 94.8451 3.74757V7.15589H87.668V14.1104C87.668 15.6582 88.4048 16.5328 89.8837 16.7289C90.5833 16.8349 91.4951 16.8879 92.6241 16.8879C95.8522 16.8879 98.5396 16.6441 100.681 16.167L100.347 13.8877C98.757 14.1899 96.8593 14.3383 94.6489 14.3383V14.333Z" fill="black"/>
<path d="M103.183 21.579H106.994V0.477051H103.183V7.15589H99.3926V9.52529H103.183V21.579Z" fill="black"/>
<path d="M126.882 14.8525V21.579H130.72V0.477051H126.882V11.5819C126.882 12.3187 126.596 12.8753 126.024 13.2517C125.61 13.522 124.921 13.7499 123.951 13.9407C122.981 14.1263 121.47 14.2217 119.424 14.2217C118.359 14.2217 117.521 14.1793 116.906 14.0998C116.297 14.015 115.989 13.7817 115.989 13.3895V9.44048H123.453L123.999 2.30578C124.078 1.29865 123.58 0.795091 122.499 0.795091H112.364V3.16449H119.514C119.912 3.16449 120.108 3.37651 120.108 3.79527V7.09228H112.146V13.9089C112.146 15.5203 112.851 16.4162 114.267 16.5964C114.998 16.6865 115.942 16.7289 117.103 16.7289C120.06 16.7289 122.26 16.5593 123.707 16.2094C125.297 15.8172 126.352 15.3666 126.877 14.8578L126.882 14.8525Z" fill="black"/>
<path d="M152.701 20.7681C153.878 19.8511 154.466 18.669 154.466 17.2219C154.466 15.7749 153.878 14.5981 152.701 13.6758C151.477 12.7005 149.834 12.2075 147.766 12.2075C145.699 12.2075 144.056 12.6952 142.832 13.6758C141.655 14.5928 141.066 15.7749 141.066 17.2219C141.066 18.669 141.655 19.8458 142.832 20.7681C144.056 21.7328 145.699 22.2152 147.766 22.2152C149.834 22.2152 151.477 21.7328 152.701 20.7681ZM144.787 17.2272C144.787 16.5064 145.063 15.9127 145.609 15.4462C146.16 14.9798 146.876 14.7465 147.766 14.7465C148.657 14.7465 149.373 14.9798 149.913 15.4462C150.454 15.9127 150.724 16.5064 150.724 17.2272C150.724 17.9481 150.454 18.5259 149.913 18.9977C149.373 19.4694 148.657 19.708 147.766 19.708C146.876 19.708 146.155 19.4694 145.609 18.9977C145.058 18.5206 144.787 17.9322 144.787 17.2272Z" fill="black"/>
<path d="M146.743 8.03573H150.724V12.0801H154.562V0.47168H150.724V5.77765H146.743V8.03573Z" fill="black"/>
<path d="M141.57 8.08351C142.047 8.92632 142.784 9.68432 143.775 10.3522C144.772 11.0201 145.864 11.5077 147.056 11.8099L148.344 9.71082C145.275 8.7355 143.637 7.08699 143.431 4.7653H147.889V2.43831H143.356V0H139.519V2.43831H135.013V4.7653H139.471C139.264 7.30962 137.595 9.13835 134.462 10.2515L135.893 12.4407C137.149 12.0802 138.316 11.4971 139.397 10.6914C140.478 9.88574 141.199 9.01643 141.565 8.08351H141.57Z" fill="black"/>
<path d="M158.209 12.3931V14.7413H167.172V21.5791H171.015V14.7413H180V12.3931H158.209Z" fill="black"/>
<path d="M159.667 8.08359L160.595 10.453C162.487 10.1827 164.22 9.66319 165.789 8.8946C167.427 8.1101 168.556 7.23019 169.176 6.25487C169.844 7.21959 171.037 8.1154 172.754 8.9423C174.424 9.7374 176.083 10.2463 177.737 10.453L178.596 8.1048C176.56 7.72845 174.885 7.09767 173.565 6.20716C172.198 5.29014 171.419 4.21941 171.228 3.00026H177.43V0.630859H160.764V3.00026H166.966C166.6 5.57108 164.167 7.26729 159.672 8.07829L159.667 8.08359Z" fill="black"/>
<path d="M46.4343 4.92424C46.4343 5.01966 46.4131 14.211 46.4131 15.022V19.5223C46.4131 21.9288 44.966 24.5102 44.0967 25.3795C42.8881 26.5828 41.0647 27.6058 38.6582 27.6588V32.1432C38.6582 32.1432 43.9059 32.1114 47.399 28.6129C49.7631 26.1905 50.7596 22.2574 50.7596 19.835V0.508789H46.3919C46.3919 0.985849 46.4343 4.91364 46.4343 4.92424Z" fill="#1C95D4"/>
<path d="M4.49496 5.29526C1.50009 8.38025 0 12.0483 0 16.3047C0 20.5612 1.52129 24.3141 4.55857 27.3937C9.38218 32.4665 17.0257 32.1431 17.312 32.1431V9.81673H13.0025L13.0131 14.4548L13.0237 27.2347C13.0237 27.2347 10.2939 26.7842 7.27251 23.7681C6.31309 22.8087 4.44726 19.8562 4.44726 15.9708C4.44726 12.6367 6.00565 10.0288 7.63826 8.39615C11.7039 4.53197 17.3332 4.94542 17.3491 4.94542V0.508762C17.3491 0.508762 9.17015 0.233127 4.49496 5.29526Z" fill="#1C95D4"/>
<path d="M24.0389 5.29526C21.044 8.37495 19.5439 12.043 19.5439 16.3047C19.5439 20.5665 21.0652 24.3141 24.1025 27.3937C28.9261 32.4665 36.575 32.1431 36.8559 32.1431V27.7224C36.8559 27.7224 30.3732 27.5793 26.8165 23.7681C25.857 22.8087 23.9912 19.8562 23.9912 15.9708C23.9912 12.6367 25.5496 10.0288 27.1822 8.39615C31.2478 4.53197 36.8771 4.94542 36.893 4.94542V0.508762C36.893 0.508762 28.7141 0.233127 24.0389 5.29526Z" fill="#1C95D4"/>
<path d="M69.6982 30.0335H70.9862C70.9862 30.5159 70.7901 30.8604 70.4084 31.0619C70.1699 31.1891 69.9049 31.2527 69.6133 31.2527C69.1522 31.2527 68.7864 31.1202 68.5108 30.8604C68.1716 30.5371 68.0019 30.0282 68.0019 29.3338C68.0019 28.6395 68.161 28.1412 68.479 27.7808C68.7652 27.468 69.131 27.309 69.5868 27.309C69.7777 27.309 69.9632 27.3461 70.1381 27.4203C70.2759 27.4892 70.4084 27.5793 70.5251 27.6906C70.6152 27.7861 70.6894 27.8921 70.7477 28.0034C70.8007 28.0988 70.8272 28.1783 70.8272 28.2419H71.988C71.9456 27.7648 71.7442 27.3461 71.3785 26.9857C70.9173 26.5457 70.3024 26.3284 69.5285 26.3284C68.6433 26.3284 67.9595 26.6358 67.4719 27.2507C67.0425 27.7914 66.8252 28.4804 66.8252 29.3232C66.8252 30.2562 67.0796 30.993 67.5885 31.5336C68.055 32.0319 68.6486 32.281 69.3642 32.281C69.8413 32.281 70.2388 32.1803 70.5622 31.9789C70.8484 31.7987 70.9915 31.6131 70.9915 31.4117V32.122H72.0304V29.1006H69.7035V30.0441L69.6982 30.0335Z" fill="#666666"/>
<path d="M76.5841 26.4556L74.5752 32.1379H75.7944L76.1866 30.9664H78.2804L78.6514 32.1379H79.8971L77.9199 26.4556H76.5841ZM76.5046 29.9858L77.2202 27.7383H77.2414L77.9464 29.9858H76.5046Z" fill="#666666"/>
<path d="M83.7819 26.4556H82.6211V32.1379H86.5224V31.1043H83.7819V26.4556Z" fill="#666666"/>
<path d="M90.5036 26.4556H89.3428V32.1379H93.2441V31.1043H90.5036V26.4556Z" fill="#666666"/>
<path d="M97.2139 29.6572H99.896V28.6659H97.2139V27.4627H100.14V26.4556H96.0742V32.1379H100.267V31.1361H97.2139V29.6572Z" fill="#666666"/>
<path d="M107.54 31.7033C107.519 31.592 107.514 31.3163 107.514 30.8711C107.514 30.3781 107.45 30.0283 107.323 29.8216C107.238 29.6678 107.063 29.5353 106.809 29.424C107.074 29.3339 107.286 29.159 107.439 28.9098C107.588 28.666 107.662 28.3904 107.662 28.067C107.662 27.696 107.556 27.3621 107.344 27.0758C107.042 26.6677 106.57 26.4609 105.939 26.4609H103.13V32.1433H104.27V29.917H105.473C105.87 29.917 106.119 30.0018 106.236 30.1608C106.321 30.288 106.369 30.5637 106.369 30.993C106.369 31.2686 106.379 31.4966 106.395 31.6821C106.411 31.8411 106.438 31.9948 106.48 32.138H107.768V31.9948C107.646 31.9524 107.572 31.857 107.545 31.7033H107.54ZM106.284 28.7879C106.141 28.9098 105.923 28.9682 105.616 28.9682H104.259V27.431H105.706C105.998 27.431 106.215 27.5158 106.353 27.6854C106.448 27.8126 106.496 27.9769 106.496 28.1784C106.496 28.4593 106.422 28.6607 106.278 28.7879H106.284Z" fill="#666666"/>
<path d="M112.936 28.9416L111.738 26.4556H110.376L112.343 29.9911V32.1379H113.503V30.0123L115.327 26.4556H114.023L112.936 28.9416Z" fill="#666666"/>
<path d="M124.725 27.3619C125.133 27.3619 125.44 27.4838 125.647 27.7224C125.764 27.8549 125.859 28.0616 125.928 28.3373H127.094C127.052 27.8284 126.85 27.3884 126.495 27.0121C126.05 26.5509 125.456 26.323 124.704 26.323C123.951 26.323 123.357 26.5721 122.901 27.0757C122.414 27.6058 122.17 28.3426 122.17 29.2861C122.17 30.2296 122.408 30.977 122.88 31.5124C123.331 32.0212 123.935 32.2756 124.698 32.2756C125.361 32.2756 125.902 32.0795 126.32 31.682C126.707 31.3215 126.967 30.8127 127.094 30.166H125.928C125.854 30.5158 125.716 30.7809 125.509 30.9611C125.308 31.1466 125.043 31.2367 124.725 31.2367C124.258 31.2367 123.903 31.0406 123.659 30.6483C123.447 30.3038 123.341 29.8585 123.341 29.3073C123.341 28.597 123.5 28.0722 123.818 27.733C124.062 27.4838 124.364 27.3566 124.725 27.3566V27.3619Z" fill="#666666"/>
<path d="M133.359 28.6129H131.165V26.4556H130.004V32.1379H131.165V29.5936H133.359V32.1379H134.515V26.4556H133.359V28.6129Z" fill="#666666"/>
<path d="M138.798 29.6572H141.481V28.6659H138.798V27.4627H141.73V26.4556H137.664V32.1379H141.852V31.1361H138.798V29.6572Z" fill="#666666"/>
<path d="M148.694 26.8001C148.239 26.4714 147.708 26.3071 147.109 26.3071C146.51 26.3071 145.97 26.4714 145.514 26.8001C144.82 27.309 144.47 28.1359 144.47 29.2914C144.47 30.4469 144.82 31.2633 145.514 31.7721C145.975 32.1061 146.505 32.2704 147.109 32.2704C147.714 32.2704 148.239 32.1061 148.694 31.7721C149.394 31.2633 149.744 30.4363 149.744 29.2914C149.744 28.1465 149.394 27.3037 148.694 26.8001ZM148.074 30.8604C147.814 31.1201 147.491 31.2526 147.104 31.2526C146.717 31.2526 146.389 31.1201 146.124 30.8604C145.784 30.5212 145.615 30.0017 145.615 29.2967C145.615 28.5917 145.784 28.0616 146.124 27.7171C146.383 27.4574 146.712 27.3249 147.104 27.3249C147.496 27.3249 147.814 27.4574 148.074 27.7171C148.419 28.0616 148.588 28.5864 148.588 29.2967C148.588 30.007 148.419 30.5212 148.074 30.8604Z" fill="#666666"/>
<path d="M156.073 30.4205H156.068L153.879 26.4556H152.654V32.1379H153.736V28.0935H153.757L156.004 32.1379H157.149V26.4556H156.073V30.4205Z" fill="#666666"/>
<path d="M162.995 30.0335H164.284C164.284 30.5159 164.093 30.8604 163.706 31.0619C163.467 31.1891 163.202 31.2527 162.911 31.2527C162.449 31.2527 162.084 31.1202 161.808 30.8604C161.469 30.5371 161.299 30.0282 161.299 29.3338C161.299 28.6395 161.458 28.1412 161.776 27.7808C162.063 27.468 162.434 27.309 162.884 27.309C163.08 27.309 163.26 27.3461 163.435 27.4203C163.579 27.4892 163.706 27.5793 163.817 27.6906C163.907 27.7861 163.981 27.8921 164.04 28.0034C164.093 28.0988 164.119 28.1783 164.119 28.2419H165.28C165.238 27.7648 165.036 27.3461 164.67 26.9857C164.209 26.5457 163.594 26.3284 162.821 26.3284C161.935 26.3284 161.252 26.6358 160.764 27.2507C160.335 27.7914 160.117 28.4804 160.117 29.3232C160.117 30.2562 160.372 30.993 160.88 31.5336C161.347 32.0319 161.941 32.281 162.656 32.281C163.133 32.281 163.531 32.1803 163.854 31.9789C164.14 31.7987 164.284 31.6131 164.284 31.4117V32.122H165.322V29.1006H162.995V30.0441V30.0335Z" fill="#666666"/>
<path d="M170.087 30.4789C170.087 30.744 170.056 30.9401 169.987 31.0567C169.897 31.2316 169.716 31.3165 169.457 31.3165C169.17 31.3165 168.98 31.2051 168.884 30.9825C168.81 30.8023 168.773 30.4683 168.773 29.9807H167.702C167.702 30.3411 167.707 30.6168 167.723 30.7917C167.755 31.0885 167.824 31.3324 167.925 31.5232C168.052 31.7617 168.232 31.9419 168.476 32.0585C168.746 32.1964 169.102 32.2706 169.541 32.2706C170.093 32.2706 170.511 32.1222 170.798 31.8306C171.089 31.5285 171.238 31.0726 171.238 30.4736V26.4504H170.087V30.4736V30.4789Z" fill="#666666"/>
<path d="M177.7 30.1715C177.7 30.5266 177.615 30.797 177.44 30.9666C177.26 31.1574 176.979 31.2475 176.592 31.2475C176.284 31.2475 176.046 31.1574 175.876 30.9719C175.686 30.7758 175.585 30.4948 175.585 30.1185V26.4504H174.397V30.2033C174.397 30.4895 174.435 30.744 174.509 30.9666C174.583 31.1998 174.694 31.4013 174.843 31.5762C175.06 31.8253 175.352 32.0108 175.712 32.1275C175.993 32.2229 176.295 32.2706 176.618 32.2706C177.334 32.2706 177.885 32.1009 178.272 31.7564C178.686 31.396 178.887 30.85 178.887 30.1238V26.4504H177.705V30.1662L177.7 30.1715Z" fill="#666666"/>
</g>
<defs>
<clipPath id="clip0_76_1794">
<rect width="180" height="32.2758" fill="white"/>
</clipPath>
</defs>
</svg>
