<svg width="32" height="32" viewBox="0 0 32 32" fill="none" xmlns="http://www.w3.org/2000/svg">
<circle opacity="0.8" cx="16" cy="16" r="16" fill="white" fill-opacity="0.8"/>
<g opacity="0.8" clip-path="url(#clip0_49_528)">
<path d="M26 13.3867C26 10.9613 24.0331 9 21.6133 9H10.3867C7.96685 9 6 10.9669 6 13.3867V18.6077C6 21.0331 7.96685 22.9945 10.3867 22.9945H21.6077C24.0331 22.9945 25.9945 21.0276 25.9945 18.6077V13.3867H26ZM19.3978 16.3923L14.3646 18.884C14.1657 18.9889 13.4972 18.8453 13.4972 18.6243V13.5138C13.4972 13.2873 14.1713 13.1436 14.3702 13.2541L19.1878 15.8729C19.3923 15.9889 19.6022 16.2818 19.3978 16.3923Z" fill="#080413"/>
</g>
<defs>
<clipPath id="clip0_49_528">
<rect width="20" height="14" fill="white" transform="translate(6 9)"/>
</clipPath>
</defs>
</svg>
