<svg width="32" height="32" viewBox="0 0 32 32" fill="none" xmlns="http://www.w3.org/2000/svg">
<circle opacity="0.8" cx="16" cy="16" r="16" fill="white" fill-opacity="0.8"/>
<g opacity="0.8" clip-path="url(#clip0_49_518)">
<path d="M20.7614 10.2129C20.1804 10.2129 19.7056 10.6878 19.7056 11.2687C19.7056 11.8497 20.1804 12.3246 20.7614 12.3246C21.3424 12.3246 21.8173 11.8497 21.8173 11.2687C21.8173 10.6878 21.3424 10.2129 20.7614 10.2129Z" fill="#080413"/>
<path d="M16.0731 11.5669C13.628 11.5669 11.6426 13.5574 11.6426 15.9974C11.6426 18.4375 13.633 20.428 16.0731 20.428C18.5132 20.428 20.5036 18.4375 20.5036 15.9974C20.5036 13.5574 18.5132 11.5669 16.0731 11.5669ZM16.0731 18.8366C14.507 18.8366 13.2339 17.5635 13.2339 15.9974C13.2339 14.4313 14.507 13.1582 16.0731 13.1582C17.6392 13.1582 18.9123 14.4313 18.9123 15.9974C18.9123 17.5635 17.6392 18.8366 16.0731 18.8366Z" fill="#080413"/>
<path d="M19.5894 25H12.4056C9.42492 25 7 22.5751 7 19.5944V12.4106C7 9.42492 9.42492 7 12.4056 7H19.5894C22.57 7 24.9949 9.42492 24.9949 12.4056V19.5894C24.9949 22.57 22.57 24.9949 19.5894 24.9949V25ZM12.4056 8.69239C10.3595 8.69239 8.69239 10.3595 8.69239 12.4056V19.5894C8.69239 21.6354 10.3595 23.3026 12.4056 23.3026H19.5894C21.6354 23.3026 23.3026 21.6354 23.3026 19.5894V12.4056C23.3026 10.3595 21.6354 8.69239 19.5894 8.69239H12.4056Z" fill="#080413"/>
</g>
<defs>
<clipPath id="clip0_49_518">
<rect width="18" height="18" fill="white" transform="translate(7 7)"/>
</clipPath>
</defs>
</svg>
