<?xml version="1.0" encoding="UTF-8"?>
<svg id="Layer_1" data-name="Layer 1" xmlns="http://www.w3.org/2000/svg" viewBox="0 0 97.85 82.81">
  <defs>
    <style>
      .cls-1, .cls-2 {
        stroke-width: 0px;
      }

      .cls-2 {
        fill: #ffef41;
      }
    </style>
  </defs>
  <path class="cls-1" d="M85.36,1.75c-1,.5-2.04,1.01-2.87,1.73-3.71,3.24-7.36,6.55-11.09,9.9-14.8-9.55-29.99-9.56-45.43.41C21.89,7.85,16.78,3.26,10.09.7,5.8-.94,2.81.29,1.19,4.46.44,6.41-.17,8.66.04,10.68c.87,7.95,4.32,14.63,10.97,19.33,1.69,1.19,1.52,2.15,1.3,3.96-.66,5.52-1.68,11.23-.96,16.65,2.5,18.73,19.65,33.07,39.6,32.14,16.96-.79,32.53-13.89,35.52-30.56,1.27-7.06.79-13.98-1.41-20.8.84-.58,1.53-1,2.16-1.49,6.66-5.18,10.54-11.93,10.63-20.41.09-8.33-5.13-11.43-12.48-7.75ZM20.59,23.33c-3.14-.44-6.3-.76-9.39-1.4-1.11-.23-2.49-1.02-2.97-1.95-.77-1.55-1.7-3.75-1.14-5.08.78-1.9,3.1-1.94,5.08-1.08.34.15.67.28,1.1.46.05-.87-.12-1.69.17-2.26.45-.93,1.11-2.24,1.88-2.39.95-.19,2.64.33,3.07,1.09,1.03,1.79,1.77,3.85,2.13,5.89.35,1.95.08,4.01.08,6.72ZM49.1,71.06c-14.8.05-26.53-11.52-26.6-26.21-.08-14.96,11.48-26.69,26.38-26.78,14.68-.09,26.46,11.52,26.64,26.26.19,14.79-11.58,26.7-26.43,26.73ZM90.46,19.14c-1.86,2.93-5.04,3.66-8.26,3.88-1.6.11-3.21-.12-4.84-.2.15-2.92.22-5.64.46-8.33.09-.97.37-2.17,1.02-2.81,1-.97,2.47-2.22,3.58-2.07.86.11,1.52,2.14,2.18,3.35.18.32.09.78.14,1.25.76-.28,1.49-.85,2.08-.71,1.49.33,3.42.58,4.22,1.61.6.77.12,2.94-.58,4.04Z"/>
  <path class="cls-2" d="M48.88,18.06c-14.91.09-26.46,11.82-26.38,26.78.07,14.69,11.79,26.26,26.6,26.21,14.85-.03,26.62-11.94,26.43-26.73-.18-14.74-11.96-26.35-26.64-26.26ZM37.44,44.33c-1.06.87-3.74,1-4.88.24-1.13-.76-1.84-3.11-1.66-4.64.24-1.94,1.56-3.74,2.71-6.25.46,1.14.72,1.81,1.04,2.61.4-.74.77-1.43,1.11-2.07.4.08.72.07.77.17.76,1.7,1.87,3.36,2.07,5.14.19,1.6-.11,3.94-1.15,4.8ZM62.78,45.41c-2.5-.2-4.18-1.86-3.81-4.24.37-2.42,1.69-4.69,2.82-7.61.62,1.32.96,2.05,1.46,3.1.34-1.02.58-1.73.81-2.44.26-.06.51-.1.77-.16.84,2.6,2.18,5.17,2.38,7.82.17,2.43-1.96,3.72-4.43,3.53Z"/>
  <path class="cls-2" d="M90.46,19.14c-1.86,2.93-5.04,3.66-8.26,3.88-1.6.11-3.21-.12-4.84-.2.15-2.92.22-5.64.46-8.33.09-.97.37-2.17,1.02-2.81,1-.97,2.47-2.22,3.58-2.07.86.11,1.52,2.14,2.18,3.35.18.32.09.78.14,1.25.76-.28,1.49-.85,2.08-.71,1.49.33,3.42.58,4.22,1.61.6.77.12,2.94-.58,4.04Z"/>
  <path class="cls-2" d="M20.59,23.33c-3.14-.44-6.3-.76-9.39-1.4-1.11-.23-2.49-1.02-2.97-1.95-.77-1.55-1.7-3.75-1.14-5.08.78-1.9,3.1-1.94,5.08-1.08.34.15.67.28,1.1.46.05-.87-.12-1.69.17-2.26.45-.93,1.11-2.24,1.88-2.39.95-.19,2.64.33,3.07,1.09,1.03,1.79,1.77,3.85,2.13,5.89.35,1.95.08,4.01.08,6.72Z"/>
  <path class="cls-1" d="M67.21,41.88c.17,2.43-1.96,3.72-4.43,3.53-2.5-.2-4.18-1.86-3.81-4.24.37-2.42,1.69-4.69,2.82-7.61.62,1.32.96,2.05,1.46,3.1.34-1.02.58-1.73.81-2.44.26-.06.51-.1.77-.16.84,2.6,2.18,5.17,2.38,7.82Z"/>
  <path class="cls-1" d="M37.44,44.33c-1.06.87-3.74,1-4.88.24-1.13-.76-1.84-3.11-1.66-4.64.24-1.94,1.56-3.74,2.71-6.25.46,1.14.72,1.81,1.04,2.61.4-.74.77-1.43,1.11-2.07.4.08.72.07.77.17.76,1.7,1.87,3.36,2.07,5.14.19,1.6-.11,3.94-1.15,4.8Z"/>
</svg>